<svg xmlns="http://www.w3.org/2000/svg" version="1.0" width="209.000000pt" height="188.000000pt" viewBox="0 0 209.000000 188.000000" preserveAspectRatio="xMidYMid meet">

<g transform="translate(0.000000,188.000000) scale(0.100000,-0.100000)" fill="#ffffff" stroke="none">
<path d="M775 1563 c-165 -123 -305 -228 -312 -231 -13 -8 -133 -255 -133 -274 1 -7 93 -76 205 -153 112 -77 221 -152 242 -167 21 -15 41 -27 44 -28 6 0 211 150 232 169 4 4 -56 52 -135 106 -79 55 -160 111 -180 126 l-38 27 187 138 c103 77 194 144 203 151 15 10 55 -14 276 -164 143 -97 270 -180 284 -186 19 -7 66 -2 190 23 91 18 171 36 179 40 9 5 -47 49 -175 135 -104 71 -254 174 -334 229 -308 212 -419 286 -427 285 -4 0 -143 -102 -308 -226z" fill="#ffffff"/>
<path d="M1165 1108 c-60 -46 -109 -87 -109 -93 -1 -5 74 -62 166 -125 92 -63 170 -118 173 -121 6 -7 -381 -299 -397 -299 -5 0 -130 81 -277 180 -146 99 -275 180 -286 180 -31 0 -349 -62 -357 -69 -5 -4 22 -27 60 -52 119 -79 441 -299 661 -452 118 -81 219 -146 226 -144 6 3 151 109 321 237 l309 232 62 126 c34 70 62 130 63 134 0 6 -113 87 -412 295 -42 29 -80 53 -85 53 -5 0 -58 -37 -118 -82z" fill="#ffffff"/>
</g>
</svg>