<svg xmlns="http://www.w3.org/2000/svg" xmlns:xlink="http://www.w3.org/1999/xlink" width="500" zoomAndPan="magnify" viewBox="0 0 375 374.999991" height="500" preserveAspectRatio="xMidYMid meet" version="1.0"><defs><g/></defs><g fill="#ffffff" fill-opacity="1"><g transform="translate(67.319206, 192.33592)"><g><path d="M 2.90625 -7.640625 C 2.90625 -9.304688 3.34375 -10.722656 4.21875 -11.890625 C 5.09375 -13.054688 6.289062 -13.945312 7.8125 -14.5625 C 8 -14.644531 8.128906 -14.585938 8.203125 -14.390625 C 8.285156 -14.203125 8.269531 -14.03125 8.15625 -13.875 C 7.457031 -13.476562 6.90625 -12.875 6.5 -12.0625 C 6.09375 -11.25 5.890625 -10.257812 5.890625 -9.09375 C 5.890625 -6.71875 6.757812 -4.847656 8.5 -3.484375 C 10.25 -2.128906 12.523438 -1.453125 15.328125 -1.453125 C 18.984375 -1.453125 21.597656 -2.171875 23.171875 -3.609375 C 24.742188 -5.046875 25.53125 -6.929688 25.53125 -9.265625 C 25.53125 -11.441406 25.082031 -13.351562 24.1875 -15 C 23.289062 -16.65625 22.304688 -18.210938 21.234375 -19.671875 C 20.171875 -21.128906 19.191406 -22.59375 18.296875 -24.0625 C 17.398438 -25.539062 16.953125 -27.210938 16.953125 -29.078125 C 16.953125 -30.171875 17.195312 -31.222656 17.6875 -32.234375 C 18.175781 -33.242188 18.859375 -34.144531 19.734375 -34.9375 C 20.609375 -35.738281 21.644531 -36.367188 22.84375 -36.828125 C 24.050781 -37.296875 25.375 -37.53125 26.8125 -37.53125 C 28.789062 -37.53125 30.351562 -37.113281 31.5 -36.28125 C 32.644531 -35.445312 33.21875 -34.445312 33.21875 -33.28125 C 33.21875 -32.613281 32.9375 -31.804688 32.375 -30.859375 C 31.8125 -29.910156 31.238281 -29.085938 30.65625 -28.390625 C 30.5 -28.304688 30.363281 -28.320312 30.25 -28.4375 C 30.132812 -28.550781 30.09375 -28.6875 30.125 -28.84375 C 30.320312 -29.15625 30.488281 -29.535156 30.625 -29.984375 C 30.757812 -30.429688 30.828125 -30.925781 30.828125 -31.46875 C 30.828125 -32.09375 30.691406 -32.6875 30.421875 -33.25 C 30.148438 -33.8125 29.757812 -34.296875 29.25 -34.703125 C 28.75 -35.109375 28.164062 -35.4375 27.5 -35.6875 C 26.84375 -35.945312 26.144531 -36.078125 25.40625 -36.078125 C 23.46875 -36.078125 22.050781 -35.609375 21.15625 -34.671875 C 20.257812 -33.742188 19.8125 -32.539062 19.8125 -31.0625 C 19.8125 -29.894531 20.035156 -28.796875 20.484375 -27.765625 C 20.929688 -26.734375 21.484375 -25.703125 22.140625 -24.671875 C 22.804688 -23.648438 23.515625 -22.625 24.265625 -21.59375 C 25.023438 -20.5625 25.734375 -19.492188 26.390625 -18.390625 C 27.054688 -17.285156 27.613281 -16.117188 28.0625 -14.890625 C 28.507812 -13.671875 28.734375 -12.34375 28.734375 -10.90625 C 28.734375 -9.382812 28.351562 -7.960938 27.59375 -6.640625 C 26.832031 -5.316406 25.789062 -4.160156 24.46875 -3.171875 C 23.15625 -2.179688 21.625 -1.40625 19.875 -0.84375 C 18.125 -0.28125 16.238281 0 14.21875 0 C 10.53125 0 7.722656 -0.71875 5.796875 -2.15625 C 3.867188 -3.59375 2.90625 -5.421875 2.90625 -7.640625 Z M 2.90625 -7.640625 "/></g></g></g><g fill="#ffffff" fill-opacity="1"><g transform="translate(97.215521, 192.33592)"><g><path d="M 4.3125 0 C 2.675781 0 1.859375 -0.894531 1.859375 -2.6875 C 1.859375 -3.300781 1.925781 -4.015625 2.0625 -4.828125 C 2.195312 -5.648438 2.410156 -6.5 2.703125 -7.375 C 2.992188 -8.25 3.332031 -9.128906 3.71875 -10.015625 C 4.113281 -10.910156 4.582031 -11.769531 5.125 -12.59375 C 4.695312 -12.320312 4.289062 -12.039062 3.90625 -11.75 C 3.519531 -11.457031 3.171875 -11.15625 2.859375 -10.84375 C 2.742188 -10.757812 2.632812 -10.785156 2.53125 -10.921875 C 2.4375 -11.054688 2.425781 -11.1875 2.5 -11.3125 C 3.164062 -12.007812 4.109375 -12.722656 5.328125 -13.453125 C 6.554688 -14.191406 7.734375 -14.78125 8.859375 -15.21875 C 9.054688 -15.21875 9.203125 -15.164062 9.296875 -15.0625 C 9.390625 -14.96875 9.398438 -14.84375 9.328125 -14.6875 C 8.078125 -13.050781 7.070312 -11.28125 6.3125 -9.375 C 5.5625 -7.476562 5.1875 -5.632812 5.1875 -3.84375 C 5.1875 -2.71875 5.535156 -2.15625 6.234375 -2.15625 C 6.742188 -2.15625 7.363281 -2.492188 8.09375 -3.171875 C 8.832031 -3.859375 9.609375 -4.753906 10.421875 -5.859375 C 11.242188 -6.960938 12.070312 -8.210938 12.90625 -9.609375 C 13.738281 -11.015625 14.507812 -12.4375 15.21875 -13.875 C 15.332031 -14.101562 15.671875 -14.332031 16.234375 -14.5625 C 16.796875 -14.800781 17.367188 -14.921875 17.953125 -14.921875 C 18.535156 -14.921875 18.707031 -14.765625 18.46875 -14.453125 C 17.925781 -13.441406 17.453125 -12.5 17.046875 -11.625 C 16.640625 -10.75 16.300781 -9.882812 16.03125 -9.03125 C 15.757812 -8.175781 15.554688 -7.3125 15.421875 -6.4375 C 15.285156 -5.5625 15.21875 -4.601562 15.21875 -3.5625 C 15.21875 -2.3125 15.546875 -1.6875 16.203125 -1.6875 C 16.859375 -1.6875 17.597656 -2.269531 18.421875 -3.4375 C 18.535156 -3.519531 18.648438 -3.519531 18.765625 -3.4375 C 18.878906 -3.363281 18.921875 -3.25 18.890625 -3.09375 C 18.222656 -2.082031 17.488281 -1.3125 16.6875 -0.78125 C 15.894531 -0.257812 15.171875 0 14.515625 0 C 12.878906 0 12.0625 -0.953125 12.0625 -2.859375 C 12.0625 -4.835938 12.410156 -6.796875 13.109375 -8.734375 C 11.640625 -6.054688 10.085938 -3.929688 8.453125 -2.359375 C 6.816406 -0.785156 5.4375 0 4.3125 0 Z M 4.3125 0 "/></g></g></g><g fill="#ffffff" fill-opacity="1"><g transform="translate(116.563622, 192.33592)"><g><path d="M 11.546875 -9.671875 C 11.304688 -9.597656 11.1875 -9.695312 11.1875 -9.96875 C 11.457031 -10.78125 11.40625 -11.5 11.03125 -12.125 C 10.664062 -12.75 10 -13.0625 9.03125 -13.0625 C 7.789062 -13.0625 6.789062 -12.28125 6.03125 -10.71875 C 5.269531 -9.164062 4.890625 -7.144531 4.890625 -4.65625 C 4.890625 -2.832031 5.609375 -1.921875 7.046875 -1.921875 C 7.710938 -1.921875 8.441406 -2.160156 9.234375 -2.640625 C 10.035156 -3.128906 10.765625 -3.765625 11.421875 -4.546875 C 11.578125 -4.617188 11.710938 -4.597656 11.828125 -4.484375 C 11.941406 -4.367188 11.960938 -4.234375 11.890625 -4.078125 C 10.921875 -2.835938 9.832031 -1.847656 8.625 -1.109375 C 7.414062 -0.367188 6.132812 0 4.78125 0 C 3.925781 0 3.207031 -0.300781 2.625 -0.90625 C 2.039062 -1.507812 1.75 -2.351562 1.75 -3.4375 C 1.75 -4.800781 2.03125 -6.171875 2.59375 -7.546875 C 3.15625 -8.921875 3.882812 -10.148438 4.78125 -11.234375 C 5.675781 -12.328125 6.644531 -13.210938 7.6875 -13.890625 C 8.738281 -14.578125 9.769531 -14.921875 10.78125 -14.921875 C 11.675781 -14.921875 12.375 -14.664062 12.875 -14.15625 C 13.382812 -13.65625 13.640625 -13.09375 13.640625 -12.46875 C 13.640625 -12.238281 13.570312 -11.988281 13.4375 -11.71875 C 13.300781 -11.445312 13.125 -11.171875 12.90625 -10.890625 C 12.695312 -10.617188 12.460938 -10.367188 12.203125 -10.140625 C 11.953125 -9.910156 11.734375 -9.753906 11.546875 -9.671875 Z M 11.546875 -9.671875 "/></g></g></g><g fill="#ffffff" fill-opacity="1"><g transform="translate(129.909149, 192.33592)"><g><path d="M 1.40625 -0.53125 C 3.144531 -7.207031 5.148438 -13.226562 7.421875 -18.59375 C 9.703125 -23.957031 12.101562 -28.519531 14.625 -32.28125 C 17.15625 -36.050781 19.710938 -38.957031 22.296875 -41 C 24.878906 -43.039062 27.335938 -44.0625 29.671875 -44.0625 C 30.640625 -44.0625 31.40625 -43.835938 31.96875 -43.390625 C 32.53125 -42.941406 32.914062 -42.394531 33.125 -41.75 C 33.34375 -41.113281 33.375 -40.425781 33.21875 -39.6875 C 33.0625 -38.945312 32.769531 -38.285156 32.34375 -37.703125 C 32.226562 -37.585938 32.113281 -37.550781 32 -37.59375 C 31.882812 -37.632812 31.828125 -37.726562 31.828125 -37.875 C 32.015625 -38.65625 31.796875 -39.394531 31.171875 -40.09375 C 30.554688 -40.789062 29.566406 -41.140625 28.203125 -41.140625 C 26.109375 -41.140625 24.117188 -40.578125 22.234375 -39.453125 C 20.347656 -38.328125 18.507812 -36.453125 16.71875 -33.828125 C 14.9375 -31.203125 13.191406 -27.722656 11.484375 -23.390625 C 9.773438 -19.066406 8.023438 -13.679688 6.234375 -7.234375 C 6.816406 -8.273438 7.488281 -9.257812 8.25 -10.1875 C 9.007812 -11.125 9.832031 -11.941406 10.71875 -12.640625 C 11.613281 -13.347656 12.566406 -13.90625 13.578125 -14.3125 C 14.585938 -14.71875 15.640625 -14.921875 16.734375 -14.921875 C 17.191406 -14.921875 17.523438 -14.800781 17.734375 -14.5625 C 17.953125 -14.332031 18.0625 -14.0625 18.0625 -13.75 C 18.0625 -13.25 17.890625 -12.6875 17.546875 -12.0625 C 16.722656 -10.625 16.054688 -9.144531 15.546875 -7.625 C 15.046875 -6.113281 14.796875 -4.738281 14.796875 -3.5 C 14.796875 -2.957031 14.851562 -2.507812 14.96875 -2.15625 C 15.09375 -1.800781 15.3125 -1.625 15.625 -1.625 C 16.007812 -1.625 16.429688 -1.828125 16.890625 -2.234375 C 17.359375 -2.648438 17.75 -3.109375 18.0625 -3.609375 C 18.175781 -3.691406 18.289062 -3.679688 18.40625 -3.578125 C 18.53125 -3.484375 18.570312 -3.378906 18.53125 -3.265625 C 18.03125 -2.410156 17.320312 -1.648438 16.40625 -0.984375 C 15.488281 -0.328125 14.660156 0 13.921875 0 C 13.265625 0 12.722656 -0.179688 12.296875 -0.546875 C 11.867188 -0.921875 11.65625 -1.554688 11.65625 -2.453125 C 11.65625 -3.148438 11.722656 -3.894531 11.859375 -4.6875 C 11.992188 -5.488281 12.164062 -6.273438 12.375 -7.046875 C 12.59375 -7.828125 12.847656 -8.59375 13.140625 -9.34375 C 13.429688 -10.101562 13.753906 -10.796875 14.109375 -11.421875 C 14.296875 -11.890625 14.390625 -12.21875 14.390625 -12.40625 C 14.390625 -12.757812 14.195312 -12.9375 13.8125 -12.9375 C 13.070312 -12.9375 12.273438 -12.65625 11.421875 -12.09375 C 10.566406 -11.53125 9.726562 -10.734375 8.90625 -9.703125 C 8.09375 -8.671875 7.304688 -7.4375 6.546875 -6 C 5.796875 -4.5625 5.148438 -2.96875 4.609375 -1.21875 C 4.523438 -0.945312 4.210938 -0.675781 3.671875 -0.40625 C 3.128906 -0.132812 2.523438 0 1.859375 0 C 1.472656 0 1.320312 -0.175781 1.40625 -0.53125 Z M 1.40625 -0.53125 "/></g></g></g><g fill="#ffffff" fill-opacity="1"><g transform="translate(148.791029, 192.33592)"><g><path d="M 9.265625 -17.421875 C 9.148438 -17.304688 9.023438 -17.304688 8.890625 -17.421875 C 8.753906 -17.535156 8.644531 -17.695312 8.5625 -17.90625 C 8.488281 -18.125 8.453125 -18.359375 8.453125 -18.609375 C 8.453125 -18.867188 8.507812 -19.097656 8.625 -19.296875 C 9.050781 -19.835938 9.679688 -20.523438 10.515625 -21.359375 C 11.347656 -22.191406 12.210938 -22.898438 13.109375 -23.484375 C 13.191406 -23.523438 13.289062 -23.492188 13.40625 -23.390625 C 13.519531 -23.296875 13.554688 -23.210938 13.515625 -23.140625 C 12.703125 -22.398438 11.925781 -21.515625 11.1875 -20.484375 C 10.445312 -19.453125 9.804688 -18.429688 9.265625 -17.421875 Z M 3.03125 -10.84375 C 2.914062 -10.757812 2.816406 -10.785156 2.734375 -10.921875 C 2.660156 -11.054688 2.644531 -11.1875 2.6875 -11.3125 C 4.125 -12.476562 6.125 -13.679688 8.6875 -14.921875 C 9 -14.921875 9.15625 -14.742188 9.15625 -14.390625 C 8.644531 -13.503906 8.144531 -12.535156 7.65625 -11.484375 C 7.175781 -10.429688 6.75 -9.390625 6.375 -8.359375 C 6.007812 -7.328125 5.707031 -6.335938 5.46875 -5.390625 C 5.238281 -4.441406 5.125 -3.65625 5.125 -3.03125 C 5.125 -2.25 5.394531 -1.859375 5.9375 -1.859375 C 6.363281 -1.859375 6.78125 -2.039062 7.1875 -2.40625 C 7.601562 -2.78125 8.082031 -3.257812 8.625 -3.84375 C 8.695312 -3.925781 8.789062 -3.914062 8.90625 -3.8125 C 9.03125 -3.71875 9.050781 -3.570312 8.96875 -3.375 C 8.113281 -2.363281 7.269531 -1.546875 6.4375 -0.921875 C 5.601562 -0.304688 4.796875 0 4.015625 0 C 2.660156 0 1.984375 -0.640625 1.984375 -1.921875 C 1.984375 -2.617188 2.085938 -3.441406 2.296875 -4.390625 C 2.515625 -5.347656 2.804688 -6.320312 3.171875 -7.3125 C 3.546875 -8.300781 3.957031 -9.269531 4.40625 -10.21875 C 4.851562 -11.175781 5.304688 -12.003906 5.765625 -12.703125 C 5.335938 -12.472656 4.863281 -12.179688 4.34375 -11.828125 C 3.820312 -11.484375 3.382812 -11.15625 3.03125 -10.84375 Z M 3.03125 -10.84375 "/></g></g></g><g fill="#ffffff" fill-opacity="1"><g transform="translate(158.465085, 192.33592)"><g><path d="M 12.9375 -14.625 C 13.132812 -14.550781 13.210938 -14.445312 13.171875 -14.3125 C 13.128906 -14.175781 12.953125 -14.066406 12.640625 -13.984375 C 12.054688 -13.984375 11.382812 -13.960938 10.625 -13.921875 C 9.875 -13.890625 9.070312 -13.832031 8.21875 -13.75 C 7.4375 -11.851562 6.789062 -10 6.28125 -8.1875 C 5.78125 -6.382812 5.53125 -4.914062 5.53125 -3.78125 C 5.53125 -2.46875 6.035156 -1.8125 7.046875 -1.8125 C 8.054688 -1.8125 9.1875 -2.679688 10.4375 -4.421875 C 10.550781 -4.503906 10.65625 -4.503906 10.75 -4.421875 C 10.851562 -4.347656 10.882812 -4.210938 10.84375 -4.015625 C 10.175781 -2.929688 9.335938 -1.988281 8.328125 -1.1875 C 7.316406 -0.394531 6.328125 0 5.359375 0 C 4.347656 0 3.597656 -0.238281 3.109375 -0.71875 C 2.628906 -1.207031 2.390625 -1.878906 2.390625 -2.734375 C 2.390625 -3.859375 2.660156 -5.410156 3.203125 -7.390625 C 3.742188 -9.378906 4.441406 -11.40625 5.296875 -13.46875 C 4.285156 -13.34375 3.351562 -13.1875 2.5 -13 C 2.3125 -13.039062 2.265625 -13.132812 2.359375 -13.28125 C 2.453125 -13.4375 2.625 -13.601562 2.875 -13.78125 C 3.132812 -13.957031 3.4375 -14.113281 3.78125 -14.25 C 4.132812 -14.382812 4.46875 -14.453125 4.78125 -14.453125 C 4.9375 -14.453125 5.09375 -14.453125 5.25 -14.453125 C 5.40625 -14.453125 5.5625 -14.472656 5.71875 -14.515625 C 6.21875 -15.640625 6.738281 -16.722656 7.28125 -17.765625 C 7.820312 -18.816406 8.367188 -19.769531 8.921875 -20.625 C 9.148438 -20.90625 9.46875 -21.148438 9.875 -21.359375 C 10.28125 -21.578125 10.675781 -21.742188 11.0625 -21.859375 C 11.457031 -21.972656 11.78125 -22.039062 12.03125 -22.0625 C 12.28125 -22.082031 12.390625 -22.015625 12.359375 -21.859375 C 11.691406 -20.847656 11.035156 -19.71875 10.390625 -18.46875 C 9.753906 -17.226562 9.144531 -15.925781 8.5625 -14.5625 C 9.300781 -14.601562 10.050781 -14.625 10.8125 -14.625 C 11.570312 -14.625 12.28125 -14.625 12.9375 -14.625 Z M 12.9375 -14.625 "/></g></g></g><g fill="#ffffff" fill-opacity="1"><g transform="translate(169.362961, 192.33592)"><g><path d="M 7.921875 -13.234375 C 7.921875 -12.648438 7.863281 -11.988281 7.75 -11.25 C 7.632812 -10.507812 7.476562 -9.75 7.28125 -8.96875 C 8.0625 -10.832031 8.914062 -12.289062 9.84375 -13.34375 C 10.78125 -14.394531 11.789062 -14.921875 12.875 -14.921875 C 13.457031 -14.921875 13.90625 -14.785156 14.21875 -14.515625 C 14.53125 -14.242188 14.6875 -13.894531 14.6875 -13.46875 C 14.6875 -13.070312 14.539062 -12.5625 14.25 -11.9375 C 13.957031 -11.320312 13.710938 -10.898438 13.515625 -10.671875 C 13.441406 -10.628906 13.363281 -10.632812 13.28125 -10.6875 C 13.207031 -10.75 13.171875 -10.820312 13.171875 -10.90625 C 13.171875 -11.175781 13.0625 -11.40625 12.84375 -11.59375 C 12.632812 -11.789062 12.316406 -11.890625 11.890625 -11.890625 C 10.523438 -11.890625 9.289062 -10.96875 8.1875 -9.125 C 7.082031 -7.28125 6.0625 -4.628906 5.125 -1.171875 C 5.09375 -0.972656 4.957031 -0.804688 4.71875 -0.671875 C 4.488281 -0.535156 4.226562 -0.414062 3.9375 -0.3125 C 3.644531 -0.21875 3.34375 -0.140625 3.03125 -0.078125 C 2.71875 -0.0234375 2.445312 0 2.21875 0 C 1.789062 0 1.671875 -0.234375 1.859375 -0.703125 C 2.210938 -1.515625 2.550781 -2.394531 2.875 -3.34375 C 3.207031 -4.300781 3.507812 -5.265625 3.78125 -6.234375 C 4.0625 -7.203125 4.296875 -8.144531 4.484375 -9.0625 C 4.679688 -9.976562 4.835938 -10.820312 4.953125 -11.59375 C 5.035156 -12.175781 5.066406 -12.625 5.046875 -12.9375 C 5.023438 -13.25 4.859375 -13.40625 4.546875 -13.40625 C 4.160156 -13.40625 3.757812 -13.238281 3.34375 -12.90625 C 2.9375 -12.570312 2.5625 -12.15625 2.21875 -11.65625 C 2.0625 -11.539062 1.914062 -11.53125 1.78125 -11.625 C 1.644531 -11.71875 1.613281 -11.84375 1.6875 -12 C 1.925781 -12.3125 2.207031 -12.632812 2.53125 -12.96875 C 2.863281 -13.300781 3.234375 -13.613281 3.640625 -13.90625 C 4.046875 -14.195312 4.472656 -14.4375 4.921875 -14.625 C 5.367188 -14.820312 5.828125 -14.921875 6.296875 -14.921875 C 6.921875 -14.921875 7.347656 -14.773438 7.578125 -14.484375 C 7.804688 -14.191406 7.921875 -13.773438 7.921875 -13.234375 Z M 7.921875 -13.234375 "/></g></g></g><g fill="#ffffff" fill-opacity="1"><g transform="translate(181.717773, 192.33592)"><g><path d="M 17.71875 -3.671875 C 17.789062 -3.742188 17.882812 -3.742188 18 -3.671875 C 18.125 -3.597656 18.164062 -3.484375 18.125 -3.328125 C 17.425781 -2.316406 16.648438 -1.507812 15.796875 -0.90625 C 14.941406 -0.300781 14.125 0 13.34375 0 C 12.445312 0 11.875 -0.628906 11.625 -1.890625 C 11.375 -3.148438 11.5 -4.65625 12 -6.40625 C 10.957031 -4.738281 9.820312 -3.3125 8.59375 -2.125 C 7.375 -0.9375 6.082031 -0.226562 4.71875 0 C 3.789062 0 3.070312 -0.425781 2.5625 -1.28125 C 2.0625 -2.132812 1.8125 -3.125 1.8125 -4.25 C 1.8125 -5.53125 2.117188 -6.800781 2.734375 -8.0625 C 3.359375 -9.332031 4.1875 -10.472656 5.21875 -11.484375 C 6.25 -12.492188 7.394531 -13.316406 8.65625 -13.953125 C 9.914062 -14.597656 11.1875 -14.921875 12.46875 -14.921875 C 13.832031 -14.921875 14.898438 -14.585938 15.671875 -13.921875 C 16.066406 -14.203125 16.5625 -14.4375 17.15625 -14.625 C 17.757812 -14.820312 18.296875 -14.921875 18.765625 -14.921875 C 18.921875 -14.921875 19 -14.820312 19 -14.625 C 18.101562 -13.539062 17.332031 -12.347656 16.6875 -11.046875 C 16.050781 -9.742188 15.554688 -8.5 15.203125 -7.3125 C 14.859375 -6.125 14.644531 -5.0625 14.5625 -4.125 C 14.488281 -3.195312 14.566406 -2.5625 14.796875 -2.21875 C 14.992188 -1.976562 15.328125 -1.90625 15.796875 -2 C 16.265625 -2.101562 16.90625 -2.660156 17.71875 -3.671875 Z M 6.53125 -2.15625 C 7 -2.15625 7.570312 -2.445312 8.25 -3.03125 C 8.925781 -3.613281 9.632812 -4.390625 10.375 -5.359375 C 11.113281 -6.328125 11.84375 -7.414062 12.5625 -8.625 C 13.28125 -9.832031 13.910156 -11.054688 14.453125 -12.296875 C 14.296875 -12.804688 13.9375 -13.210938 13.375 -13.515625 C 12.8125 -13.828125 12.160156 -13.984375 11.421875 -13.984375 C 10.523438 -13.984375 9.6875 -13.757812 8.90625 -13.3125 C 8.132812 -12.863281 7.46875 -12.238281 6.90625 -11.4375 C 6.34375 -10.644531 5.894531 -9.695312 5.5625 -8.59375 C 5.238281 -7.488281 5.078125 -6.273438 5.078125 -4.953125 C 5.078125 -4.097656 5.21875 -3.414062 5.5 -2.90625 C 5.789062 -2.40625 6.132812 -2.15625 6.53125 -2.15625 Z M 6.53125 -2.15625 "/></g></g></g><g fill="#ffffff" fill-opacity="1"><g transform="translate(200.774496, 192.33592)"><g/></g></g><g fill="#ffffff" fill-opacity="1"><g transform="translate(209.516111, 192.33592)"><g><path d="M 49.65625 -35.546875 C 49.8125 -35.429688 49.828125 -35.25 49.703125 -35 C 49.585938 -34.75 49.40625 -34.492188 49.15625 -34.234375 C 48.90625 -33.984375 48.601562 -33.757812 48.25 -33.5625 C 47.90625 -33.375 47.597656 -33.28125 47.328125 -33.28125 C 46.390625 -33.351562 45.441406 -33.445312 44.484375 -33.5625 C 43.535156 -33.6875 42.597656 -33.828125 41.671875 -33.984375 C 40.859375 -33.742188 40.148438 -33.398438 39.546875 -32.953125 C 38.941406 -32.503906 38.394531 -31.910156 37.90625 -31.171875 C 37.425781 -30.441406 36.976562 -29.519531 36.5625 -28.40625 C 36.15625 -27.300781 35.738281 -25.953125 35.3125 -24.359375 C 35.039062 -23.460938 34.789062 -22.585938 34.5625 -21.734375 C 34.332031 -20.878906 34.0625 -20.066406 33.75 -19.296875 L 39.75 -19.296875 C 39.945312 -19.210938 40.015625 -19.125 39.953125 -19.03125 C 39.890625 -18.9375 39.703125 -18.847656 39.390625 -18.765625 C 38.378906 -18.722656 37.390625 -18.691406 36.421875 -18.671875 C 35.453125 -18.660156 34.484375 -18.632812 33.515625 -18.59375 C 31.179688 -12.175781 28.21875 -7.472656 24.625 -4.484375 C 21.03125 -1.492188 16.726562 0 11.71875 0 C 8.914062 0 6.742188 -0.660156 5.203125 -1.984375 C 3.671875 -3.304688 2.90625 -5.128906 2.90625 -7.453125 C 2.90625 -8.816406 3.300781 -10.082031 4.09375 -11.25 C 4.894531 -12.414062 6.035156 -13.328125 7.515625 -13.984375 C 7.671875 -13.984375 7.785156 -13.914062 7.859375 -13.78125 C 7.941406 -13.644531 7.945312 -13.519531 7.875 -13.40625 C 7.164062 -12.863281 6.644531 -12.269531 6.3125 -11.625 C 5.988281 -10.988281 5.828125 -10.101562 5.828125 -8.96875 C 5.828125 -7.957031 6 -7.035156 6.34375 -6.203125 C 6.695312 -5.367188 7.242188 -4.628906 7.984375 -3.984375 C 8.722656 -3.347656 9.675781 -2.851562 10.84375 -2.5 C 12.007812 -2.15625 13.40625 -1.984375 15.03125 -1.984375 C 16.894531 -1.984375 18.535156 -2.210938 19.953125 -2.671875 C 21.378906 -3.140625 22.671875 -3.984375 23.828125 -5.203125 C 24.992188 -6.429688 26.082031 -8.113281 27.09375 -10.25 C 28.101562 -12.394531 29.132812 -15.132812 30.1875 -18.46875 C 28.207031 -18.394531 26.285156 -18.28125 24.421875 -18.125 C 22.554688 -17.96875 20.726562 -17.753906 18.9375 -17.484375 C 18.820312 -17.523438 18.84375 -17.613281 19 -17.75 C 19.15625 -17.882812 19.378906 -18.03125 19.671875 -18.1875 C 19.960938 -18.34375 20.28125 -18.488281 20.625 -18.625 C 20.976562 -18.757812 21.253906 -18.847656 21.453125 -18.890625 C 24.359375 -19.035156 27.347656 -19.148438 30.421875 -19.234375 C 30.617188 -19.859375 30.8125 -20.5 31 -21.15625 C 31.195312 -21.8125 31.394531 -22.492188 31.59375 -23.203125 C 32.445312 -26.347656 33.53125 -28.765625 34.84375 -30.453125 C 36.164062 -32.140625 37.972656 -33.394531 40.265625 -34.21875 C 38.171875 -34.519531 36.160156 -34.796875 34.234375 -35.046875 C 32.316406 -35.304688 30.484375 -35.4375 28.734375 -35.4375 C 25.816406 -35.4375 23.40625 -34.878906 21.5 -33.765625 C 19.601562 -32.660156 18.207031 -30.769531 17.3125 -28.09375 C 17.195312 -27.976562 17.078125 -27.957031 16.953125 -28.03125 C 16.835938 -28.113281 16.78125 -28.25 16.78125 -28.4375 C 17.632812 -31.195312 19.3125 -33.410156 21.8125 -35.078125 C 24.320312 -36.753906 27.425781 -37.59375 31.125 -37.59375 C 32.5625 -37.59375 34.007812 -37.515625 35.46875 -37.359375 C 36.925781 -37.203125 38.410156 -37.015625 39.921875 -36.796875 C 41.441406 -36.585938 43.003906 -36.363281 44.609375 -36.125 C 46.222656 -35.894531 47.90625 -35.703125 49.65625 -35.546875 Z M 49.65625 -35.546875 "/></g></g></g><g fill="#ffffff" fill-opacity="1"><g transform="translate(247.105052, 192.33592)"><g><path d="M 10.4375 -14.921875 C 11.789062 -14.921875 12.796875 -14.507812 13.453125 -13.6875 C 14.117188 -12.875 14.453125 -11.925781 14.453125 -10.84375 C 14.453125 -9.320312 14.148438 -7.910156 13.546875 -6.609375 C 12.941406 -5.304688 12.203125 -4.160156 11.328125 -3.171875 C 10.460938 -2.179688 9.523438 -1.40625 8.515625 -0.84375 C 7.503906 -0.28125 6.585938 0 5.765625 0 C 4.441406 0 3.441406 -0.394531 2.765625 -1.1875 C 2.085938 -1.988281 1.75 -3.007812 1.75 -4.25 C 1.75 -5.375 1.988281 -6.554688 2.46875 -7.796875 C 2.957031 -9.046875 3.597656 -10.195312 4.390625 -11.25 C 5.191406 -12.300781 6.113281 -13.175781 7.15625 -13.875 C 8.207031 -14.570312 9.300781 -14.921875 10.4375 -14.921875 Z M 7.234375 -1.8125 C 8.429688 -1.8125 9.445312 -2.441406 10.28125 -3.703125 C 11.125 -4.960938 11.546875 -6.703125 11.546875 -8.921875 C 11.546875 -10.085938 11.3125 -11.054688 10.84375 -11.828125 C 10.375 -12.609375 9.691406 -13 8.796875 -13 C 7.554688 -13 6.546875 -12.394531 5.765625 -11.1875 C 4.992188 -9.988281 4.609375 -8.222656 4.609375 -5.890625 C 4.609375 -4.523438 4.847656 -3.503906 5.328125 -2.828125 C 5.816406 -2.148438 6.453125 -1.8125 7.234375 -1.8125 Z M 7.234375 -1.8125 "/></g></g></g><g fill="#ffffff" fill-opacity="1"><g transform="translate(262.140619, 192.33592)"><g><path d="M 10.4375 -14.921875 C 11.789062 -14.921875 12.796875 -14.507812 13.453125 -13.6875 C 14.117188 -12.875 14.453125 -11.925781 14.453125 -10.84375 C 14.453125 -9.320312 14.148438 -7.910156 13.546875 -6.609375 C 12.941406 -5.304688 12.203125 -4.160156 11.328125 -3.171875 C 10.460938 -2.179688 9.523438 -1.40625 8.515625 -0.84375 C 7.503906 -0.28125 6.585938 0 5.765625 0 C 4.441406 0 3.441406 -0.394531 2.765625 -1.1875 C 2.085938 -1.988281 1.75 -3.007812 1.75 -4.25 C 1.75 -5.375 1.988281 -6.554688 2.46875 -7.796875 C 2.957031 -9.046875 3.597656 -10.195312 4.390625 -11.25 C 5.191406 -12.300781 6.113281 -13.175781 7.15625 -13.875 C 8.207031 -14.570312 9.300781 -14.921875 10.4375 -14.921875 Z M 7.234375 -1.8125 C 8.429688 -1.8125 9.445312 -2.441406 10.28125 -3.703125 C 11.125 -4.960938 11.546875 -6.703125 11.546875 -8.921875 C 11.546875 -10.085938 11.3125 -11.054688 10.84375 -11.828125 C 10.375 -12.609375 9.691406 -13 8.796875 -13 C 7.554688 -13 6.546875 -12.394531 5.765625 -11.1875 C 4.992188 -9.988281 4.609375 -8.222656 4.609375 -5.890625 C 4.609375 -4.523438 4.847656 -3.503906 5.328125 -2.828125 C 5.816406 -2.148438 6.453125 -1.8125 7.234375 -1.8125 Z M 7.234375 -1.8125 "/></g></g></g><g fill="#ffffff" fill-opacity="1"><g transform="translate(277.176186, 192.33592)"><g><path d="M 36.015625 -44.0625 C 36.597656 -44.0625 37.070312 -43.90625 37.4375 -43.59375 C 37.8125 -43.28125 38.078125 -42.867188 38.234375 -42.359375 C 38.390625 -41.859375 38.425781 -41.285156 38.34375 -40.640625 C 38.269531 -40.003906 38.078125 -39.375 37.765625 -38.75 C 37.691406 -38.675781 37.59375 -38.648438 37.46875 -38.671875 C 37.351562 -38.691406 37.273438 -38.78125 37.234375 -38.9375 C 37.316406 -39.519531 37.160156 -39.957031 36.765625 -40.25 C 36.378906 -40.539062 35.835938 -40.6875 35.140625 -40.6875 C 33.046875 -40.6875 31.023438 -39.984375 29.078125 -38.578125 C 27.140625 -37.179688 25.304688 -35.035156 23.578125 -32.140625 C 21.847656 -29.242188 20.253906 -25.570312 18.796875 -21.125 C 17.335938 -16.675781 16.023438 -11.382812 14.859375 -5.25 C 14.660156 -4.394531 14.640625 -3.664062 14.796875 -3.0625 C 14.953125 -2.457031 15.242188 -2.15625 15.671875 -2.15625 C 16.097656 -2.15625 16.503906 -2.328125 16.890625 -2.671875 C 17.285156 -3.023438 17.640625 -3.472656 17.953125 -4.015625 C 18.023438 -4.097656 18.128906 -4.097656 18.265625 -4.015625 C 18.398438 -3.941406 18.453125 -3.828125 18.421875 -3.671875 C 18.222656 -3.285156 17.9375 -2.878906 17.5625 -2.453125 C 17.195312 -2.023438 16.789062 -1.625 16.34375 -1.25 C 15.894531 -0.882812 15.425781 -0.582031 14.9375 -0.34375 C 14.457031 -0.113281 14.023438 0 13.640625 0 C 12.785156 0 12.179688 -0.304688 11.828125 -0.921875 C 11.484375 -1.546875 11.347656 -2.25 11.421875 -3.03125 C 11.503906 -3.6875 11.601562 -4.304688 11.71875 -4.890625 C 11.832031 -5.472656 11.96875 -6.097656 12.125 -6.765625 C 11.34375 -5.085938 10.253906 -3.632812 8.859375 -2.40625 C 7.460938 -1.1875 6.082031 -0.382812 4.71875 0 C 3.820312 0 3.101562 -0.328125 2.5625 -0.984375 C 2.019531 -1.648438 1.75 -2.507812 1.75 -3.5625 C 1.75 -5.070312 2.019531 -6.515625 2.5625 -7.890625 C 3.101562 -9.273438 3.835938 -10.488281 4.765625 -11.53125 C 5.703125 -12.582031 6.8125 -13.421875 8.09375 -14.046875 C 9.382812 -14.671875 10.765625 -14.984375 12.234375 -14.984375 C 13.054688 -14.984375 13.773438 -14.84375 14.390625 -14.5625 C 15.085938 -16.664062 15.921875 -18.851562 16.890625 -21.125 C 17.867188 -23.394531 18.941406 -25.617188 20.109375 -27.796875 C 21.273438 -29.972656 22.507812 -32.050781 23.8125 -34.03125 C 25.113281 -36.019531 26.441406 -37.75 27.796875 -39.21875 C 29.160156 -40.695312 30.539062 -41.875 31.9375 -42.75 C 33.332031 -43.625 34.691406 -44.0625 36.015625 -44.0625 Z M 6.578125 -2.265625 C 7.015625 -2.265625 7.519531 -2.488281 8.09375 -2.9375 C 8.675781 -3.382812 9.28125 -3.988281 9.90625 -4.75 C 10.53125 -5.507812 11.113281 -6.382812 11.65625 -7.375 C 12.195312 -8.363281 12.664062 -9.421875 13.0625 -10.546875 C 13.207031 -10.898438 13.335938 -11.257812 13.453125 -11.625 C 13.578125 -12 13.675781 -12.359375 13.75 -12.703125 C 13.59375 -13.171875 13.289062 -13.507812 12.84375 -13.71875 C 12.40625 -13.9375 11.910156 -14.046875 11.359375 -14.046875 C 10.546875 -14.046875 9.75 -13.800781 8.96875 -13.3125 C 8.195312 -12.832031 7.519531 -12.164062 6.9375 -11.3125 C 6.351562 -10.457031 5.875 -9.445312 5.5 -8.28125 C 5.132812 -7.113281 4.953125 -5.828125 4.953125 -4.421875 C 4.953125 -3.804688 5.097656 -3.289062 5.390625 -2.875 C 5.679688 -2.46875 6.078125 -2.265625 6.578125 -2.265625 Z M 6.578125 -2.265625 "/></g></g></g><g fill="#ffffff" fill-opacity="1"><g transform="translate(295.65013, 192.33592)"><g><path d="M 9.03125 -14.921875 C 9.882812 -14.921875 10.570312 -14.800781 11.09375 -14.5625 C 11.625 -14.332031 11.890625 -14.046875 11.890625 -13.703125 C 11.890625 -13.273438 11.78125 -12.785156 11.5625 -12.234375 C 11.351562 -11.691406 11.148438 -11.25 10.953125 -10.90625 C 10.878906 -10.820312 10.78125 -10.804688 10.65625 -10.859375 C 10.539062 -10.921875 10.484375 -11.03125 10.484375 -11.1875 C 10.609375 -11.457031 10.671875 -11.847656 10.671875 -12.359375 C 10.671875 -12.898438 10.523438 -13.34375 10.234375 -13.6875 C 9.941406 -14.039062 9.539062 -14.21875 9.03125 -14.21875 C 8.375 -14.21875 7.835938 -14.015625 7.421875 -13.609375 C 7.015625 -13.203125 6.8125 -12.628906 6.8125 -11.890625 C 6.8125 -11.265625 6.976562 -10.671875 7.3125 -10.109375 C 7.644531 -9.546875 8.015625 -8.984375 8.421875 -8.421875 C 8.828125 -7.859375 9.203125 -7.253906 9.546875 -6.609375 C 9.898438 -5.972656 10.078125 -5.242188 10.078125 -4.421875 C 10.078125 -3.023438 9.515625 -1.9375 8.390625 -1.15625 C 7.265625 -0.382812 5.789062 0 3.96875 0 C 2.644531 0 1.601562 -0.210938 0.84375 -0.640625 C 0.0820312 -1.066406 -0.296875 -1.535156 -0.296875 -2.046875 C -0.296875 -2.191406 -0.234375 -2.398438 -0.109375 -2.671875 C 0.00390625 -2.953125 0.15625 -3.242188 0.34375 -3.546875 C 0.539062 -3.859375 0.753906 -4.171875 0.984375 -4.484375 C 1.222656 -4.796875 1.476562 -5.050781 1.75 -5.25 C 1.863281 -5.320312 1.96875 -5.300781 2.0625 -5.1875 C 2.164062 -5.070312 2.175781 -4.957031 2.09375 -4.84375 C 1.863281 -4.601562 1.691406 -4.359375 1.578125 -4.109375 C 1.460938 -3.859375 1.40625 -3.519531 1.40625 -3.09375 C 1.40625 -2.394531 1.632812 -1.820312 2.09375 -1.375 C 2.5625 -0.925781 3.164062 -0.703125 3.90625 -0.703125 C 4.914062 -0.703125 5.703125 -0.984375 6.265625 -1.546875 C 6.828125 -2.109375 7.109375 -2.796875 7.109375 -3.609375 C 7.109375 -4.347656 6.941406 -5.035156 6.609375 -5.671875 C 6.285156 -6.316406 5.925781 -6.941406 5.53125 -7.546875 C 5.144531 -8.148438 4.785156 -8.757812 4.453125 -9.375 C 4.128906 -10 3.96875 -10.660156 3.96875 -11.359375 C 3.96875 -12.367188 4.394531 -13.210938 5.25 -13.890625 C 6.101562 -14.578125 7.363281 -14.921875 9.03125 -14.921875 Z M 9.03125 -14.921875 "/></g></g></g><g fill="#ffffff" fill-opacity="1"><g transform="translate(83.608063, 210.04695)"><g><path d="M 3.375 -4.96875 L 5.453125 0 L 4.3125 0 L 3.859375 -1.0625 L 1.75 -1.0625 L 1.3125 0 L 0.15625 0 L 2.21875 -4.96875 Z M 3.453125 -2.03125 L 2.8125 -3.59375 L 2.15625 -2.03125 Z M 3.453125 -2.03125 "/></g></g></g><g fill="#ffffff" fill-opacity="1"><g transform="translate(93.030113, 210.04695)"><g><path d="M 3.140625 -4.96875 L 4.1875 -4.96875 L 4.1875 -1.796875 C 4.1875 -1.546875 4.132812 -1.304688 4.03125 -1.078125 C 3.9375 -0.847656 3.800781 -0.644531 3.625 -0.46875 C 3.445312 -0.300781 3.238281 -0.164062 3 -0.0625 C 2.757812 0.0390625 2.503906 0.09375 2.234375 0.09375 C 1.972656 0.09375 1.722656 0.0390625 1.484375 -0.0625 C 1.242188 -0.164062 1.035156 -0.300781 0.859375 -0.46875 C 0.691406 -0.644531 0.554688 -0.847656 0.453125 -1.078125 C 0.347656 -1.304688 0.296875 -1.546875 0.296875 -1.796875 L 0.296875 -4.96875 L 1.34375 -4.96875 L 1.34375 -2 C 1.34375 -1.863281 1.363281 -1.734375 1.40625 -1.609375 C 1.457031 -1.484375 1.523438 -1.375 1.609375 -1.28125 C 1.691406 -1.1875 1.785156 -1.109375 1.890625 -1.046875 C 2.003906 -0.992188 2.117188 -0.96875 2.234375 -0.96875 C 2.359375 -0.96875 2.472656 -0.992188 2.578125 -1.046875 C 2.691406 -1.109375 2.789062 -1.1875 2.875 -1.28125 C 2.957031 -1.375 3.019531 -1.484375 3.0625 -1.609375 C 3.113281 -1.734375 3.140625 -1.863281 3.140625 -2 Z M 3.140625 -4.96875 "/></g></g></g><g fill="#ffffff" fill-opacity="1"><g transform="translate(101.325158, 210.04695)"><g><path d="M 0.15625 -4.96875 L 3.75 -4.96875 L 3.75 -4 L 2.484375 -4 L 2.484375 0 L 1.421875 0 L 1.421875 -4 L 0.15625 -4 Z M 0.15625 -4.96875 "/></g></g></g><g fill="#ffffff" fill-opacity="1"><g transform="translate(109.053201, 210.04695)"><g><path d="M 3.65625 -4.96875 L 4.71875 -4.96875 L 4.71875 0 L 3.65625 0 L 3.65625 -2.140625 L 1.390625 -2.140625 L 1.390625 0 L 0.328125 0 L 0.328125 -4.96875 L 1.390625 -4.96875 L 1.390625 -3.09375 L 3.65625 -3.09375 Z M 3.65625 -4.96875 "/></g></g></g><g fill="#ffffff" fill-opacity="1"><g transform="translate(117.922252, 210.04695)"><g><path d="M 0.34375 -4.96875 L 3.4375 -4.96875 L 3.4375 -4 L 1.40625 -4 L 1.40625 -3.09375 L 3.1875 -3.09375 L 3.1875 -2.140625 L 1.40625 -2.140625 L 1.40625 -0.953125 L 3.4375 -0.953125 L 3.4375 0 L 0.34375 0 Z M 0.34375 -4.96875 "/></g></g></g><g fill="#ffffff" fill-opacity="1"><g transform="translate(125.510292, 210.04695)"><g><path d="M 3.71875 -4.96875 L 4.78125 -4.96875 L 4.78125 0 L 3.765625 0 L 1.390625 -3.234375 L 1.390625 0 L 0.328125 0 L 0.328125 -4.96875 L 1.328125 -4.96875 L 3.71875 -1.703125 Z M 3.71875 -4.96875 "/></g></g></g><g fill="#ffffff" fill-opacity="1"><g transform="translate(134.435338, 210.04695)"><g><path d="M 0.15625 -4.96875 L 3.75 -4.96875 L 3.75 -4 L 2.484375 -4 L 2.484375 0 L 1.421875 0 L 1.421875 -4 L 0.15625 -4 Z M 0.15625 -4.96875 "/></g></g></g><g fill="#ffffff" fill-opacity="1"><g transform="translate(142.163382, 210.04695)"><g><path d="M 2.140625 -4.96875 L 2.140625 -4.0625 L 1.765625 -4.0625 L 1.765625 -0.890625 L 2.140625 -0.890625 L 2.140625 0 L 0.328125 0 L 0.328125 -0.890625 L 0.703125 -0.890625 L 0.703125 -4.0625 L 0.328125 -4.0625 L 0.328125 -4.96875 Z M 2.140625 -4.96875 "/></g></g></g><g fill="#ffffff" fill-opacity="1"><g transform="translate(148.435413, 210.04695)"><g><path d="M 2.671875 -0.96875 C 2.890625 -0.96875 3.101562 -1.019531 3.3125 -1.125 C 3.53125 -1.226562 3.75 -1.398438 3.96875 -1.640625 L 4.65625 -0.984375 C 4.382812 -0.628906 4.070312 -0.359375 3.71875 -0.171875 C 3.363281 0.00390625 3 0.09375 2.625 0.09375 C 2.289062 0.09375 1.976562 0.0234375 1.6875 -0.109375 C 1.394531 -0.253906 1.140625 -0.441406 0.921875 -0.671875 C 0.703125 -0.898438 0.53125 -1.171875 0.40625 -1.484375 C 0.28125 -1.796875 0.21875 -2.128906 0.21875 -2.484375 C 0.21875 -2.828125 0.28125 -3.148438 0.40625 -3.453125 C 0.539062 -3.765625 0.71875 -4.035156 0.9375 -4.265625 C 1.15625 -4.503906 1.410156 -4.691406 1.703125 -4.828125 C 2.003906 -4.960938 2.328125 -5.03125 2.671875 -5.03125 C 2.984375 -5.03125 3.28125 -4.972656 3.5625 -4.859375 C 3.84375 -4.742188 4.117188 -4.550781 4.390625 -4.28125 L 3.765625 -3.53125 C 3.578125 -3.707031 3.394531 -3.828125 3.21875 -3.890625 C 3.039062 -3.953125 2.859375 -3.984375 2.671875 -3.984375 C 2.472656 -3.984375 2.289062 -3.941406 2.125 -3.859375 C 1.957031 -3.785156 1.804688 -3.679688 1.671875 -3.546875 C 1.546875 -3.410156 1.445312 -3.25 1.375 -3.0625 C 1.3125 -2.882812 1.28125 -2.691406 1.28125 -2.484375 C 1.28125 -2.265625 1.3125 -2.0625 1.375 -1.875 C 1.445312 -1.695312 1.546875 -1.539062 1.671875 -1.40625 C 1.804688 -1.269531 1.957031 -1.160156 2.125 -1.078125 C 2.289062 -1.003906 2.472656 -0.96875 2.671875 -0.96875 Z M 2.671875 -0.96875 "/></g></g></g><g fill="#ffffff" fill-opacity="1"><g transform="translate(157.11546, 210.04695)"><g><path d="M 2.9375 -2.421875 L 2.359375 -1.984375 L 1.703125 -3.109375 L 1.078125 -2 L 0.484375 -2.421875 L 1.359375 -3.34375 L 0.140625 -3.5625 L 0.359375 -4.25 L 1.484375 -3.8125 L 1.34375 -4.96875 L 2.078125 -4.96875 L 1.9375 -3.828125 L 3.046875 -4.25 L 3.265625 -3.5625 L 2.109375 -3.328125 Z M 2.9375 -2.421875 "/></g></g></g><g fill="#ffffff" fill-opacity="1"><g transform="translate(164.3465, 210.04695)"><g><path d="M 3.375 -4.96875 L 5.453125 0 L 4.3125 0 L 3.859375 -1.0625 L 1.75 -1.0625 L 1.3125 0 L 0.15625 0 L 2.21875 -4.96875 Z M 3.453125 -2.03125 L 2.8125 -3.59375 L 2.15625 -2.03125 Z M 3.453125 -2.03125 "/></g></g></g><g fill="#ffffff" fill-opacity="1"><g transform="translate(173.768554, 210.04695)"><g><path d="M 3.90625 -3.484375 C 3.90625 -3.328125 3.878906 -3.175781 3.828125 -3.03125 C 3.785156 -2.894531 3.722656 -2.765625 3.640625 -2.640625 C 3.566406 -2.523438 3.472656 -2.421875 3.359375 -2.328125 C 3.242188 -2.234375 3.125 -2.160156 3 -2.109375 L 4.640625 0 L 3.40625 0 L 1.875 -2 L 1.390625 -2 L 1.390625 0 L 0.328125 0 L 0.328125 -4.96875 L 2.46875 -4.96875 C 2.664062 -4.96875 2.851562 -4.925781 3.03125 -4.84375 C 3.207031 -4.769531 3.359375 -4.664062 3.484375 -4.53125 C 3.609375 -4.394531 3.707031 -4.238281 3.78125 -4.0625 C 3.863281 -3.882812 3.90625 -3.691406 3.90625 -3.484375 Z M 2.34375 -2.96875 C 2.476562 -2.96875 2.59375 -3.015625 2.6875 -3.109375 C 2.78125 -3.210938 2.828125 -3.335938 2.828125 -3.484375 C 2.828125 -3.628906 2.78125 -3.75 2.6875 -3.84375 C 2.59375 -3.945312 2.476562 -4 2.34375 -4 L 1.390625 -4 L 1.390625 -2.96875 Z M 2.34375 -2.96875 "/></g></g></g><g fill="#ffffff" fill-opacity="1"><g transform="translate(182.392601, 210.04695)"><g><path d="M 2.671875 -5.03125 C 3.003906 -5.03125 3.320312 -4.960938 3.625 -4.828125 C 3.925781 -4.691406 4.1875 -4.503906 4.40625 -4.265625 C 4.625 -4.035156 4.796875 -3.765625 4.921875 -3.453125 C 5.054688 -3.148438 5.125 -2.828125 5.125 -2.484375 C 5.125 -2.128906 5.054688 -1.796875 4.921875 -1.484375 C 4.796875 -1.171875 4.625 -0.898438 4.40625 -0.671875 C 4.1875 -0.441406 3.925781 -0.253906 3.625 -0.109375 C 3.320312 0.0234375 3.003906 0.09375 2.671875 0.09375 C 2.335938 0.09375 2.019531 0.0234375 1.71875 -0.109375 C 1.425781 -0.253906 1.164062 -0.441406 0.9375 -0.671875 C 0.71875 -0.898438 0.546875 -1.171875 0.421875 -1.484375 C 0.296875 -1.796875 0.234375 -2.128906 0.234375 -2.484375 C 0.234375 -2.828125 0.296875 -3.148438 0.421875 -3.453125 C 0.546875 -3.765625 0.71875 -4.035156 0.9375 -4.265625 C 1.164062 -4.503906 1.425781 -4.691406 1.71875 -4.828125 C 2.019531 -4.960938 2.335938 -5.03125 2.671875 -5.03125 Z M 2.671875 -0.96875 C 2.867188 -0.96875 3.050781 -1.003906 3.21875 -1.078125 C 3.382812 -1.160156 3.53125 -1.269531 3.65625 -1.40625 C 3.78125 -1.539062 3.878906 -1.695312 3.953125 -1.875 C 4.023438 -2.0625 4.0625 -2.265625 4.0625 -2.484375 C 4.0625 -2.691406 4.023438 -2.882812 3.953125 -3.0625 C 3.878906 -3.25 3.78125 -3.410156 3.65625 -3.546875 C 3.53125 -3.691406 3.382812 -3.800781 3.21875 -3.875 C 3.050781 -3.957031 2.867188 -4 2.671875 -4 C 2.484375 -4 2.304688 -3.957031 2.140625 -3.875 C 1.972656 -3.800781 1.820312 -3.691406 1.6875 -3.546875 C 1.5625 -3.410156 1.460938 -3.25 1.390625 -3.0625 C 1.316406 -2.882812 1.28125 -2.691406 1.28125 -2.484375 C 1.28125 -2.265625 1.316406 -2.0625 1.390625 -1.875 C 1.460938 -1.695312 1.5625 -1.539062 1.6875 -1.40625 C 1.820312 -1.269531 1.972656 -1.160156 2.140625 -1.078125 C 2.304688 -1.003906 2.484375 -0.96875 2.671875 -0.96875 Z M 2.671875 -0.96875 "/></g></g></g><g fill="#ffffff" fill-opacity="1"><g transform="translate(191.562651, 210.04695)"><g><path d="M 4.671875 -4.96875 L 5.671875 -4.96875 L 5.671875 0 L 4.625 0 L 4.625 -3.28125 L 3.4375 -1.609375 L 2.59375 -1.609375 L 1.390625 -3.234375 L 1.390625 0 L 0.328125 0 L 0.328125 -4.96875 L 1.34375 -4.96875 L 3.015625 -2.671875 Z M 4.671875 -4.96875 "/></g></g></g><g fill="#ffffff" fill-opacity="1"><g transform="translate(201.383701, 210.04695)"><g><path d="M 3.375 -4.96875 L 5.453125 0 L 4.3125 0 L 3.859375 -1.0625 L 1.75 -1.0625 L 1.3125 0 L 0.15625 0 L 2.21875 -4.96875 Z M 3.453125 -2.03125 L 2.8125 -3.59375 L 2.15625 -2.03125 Z M 3.453125 -2.03125 "/></g></g></g><g fill="#ffffff" fill-opacity="1"><g transform="translate(210.805756, 210.04695)"><g><path d="M 0.15625 -4.96875 L 3.75 -4.96875 L 3.75 -4 L 2.484375 -4 L 2.484375 0 L 1.421875 0 L 1.421875 -4 L 0.15625 -4 Z M 0.15625 -4.96875 "/></g></g></g><g fill="#ffffff" fill-opacity="1"><g transform="translate(218.533795, 210.04695)"><g><path d="M 2.140625 -4.96875 L 2.140625 -4.0625 L 1.765625 -4.0625 L 1.765625 -0.890625 L 2.140625 -0.890625 L 2.140625 0 L 0.328125 0 L 0.328125 -0.890625 L 0.703125 -0.890625 L 0.703125 -4.0625 L 0.328125 -4.0625 L 0.328125 -4.96875 Z M 2.140625 -4.96875 "/></g></g></g><g fill="#ffffff" fill-opacity="1"><g transform="translate(224.805822, 210.04695)"><g><path d="M 2.671875 -0.96875 C 2.890625 -0.96875 3.101562 -1.019531 3.3125 -1.125 C 3.53125 -1.226562 3.75 -1.398438 3.96875 -1.640625 L 4.65625 -0.984375 C 4.382812 -0.628906 4.070312 -0.359375 3.71875 -0.171875 C 3.363281 0.00390625 3 0.09375 2.625 0.09375 C 2.289062 0.09375 1.976562 0.0234375 1.6875 -0.109375 C 1.394531 -0.253906 1.140625 -0.441406 0.921875 -0.671875 C 0.703125 -0.898438 0.53125 -1.171875 0.40625 -1.484375 C 0.28125 -1.796875 0.21875 -2.128906 0.21875 -2.484375 C 0.21875 -2.828125 0.28125 -3.148438 0.40625 -3.453125 C 0.539062 -3.765625 0.71875 -4.035156 0.9375 -4.265625 C 1.15625 -4.503906 1.410156 -4.691406 1.703125 -4.828125 C 2.003906 -4.960938 2.328125 -5.03125 2.671875 -5.03125 C 2.984375 -5.03125 3.28125 -4.972656 3.5625 -4.859375 C 3.84375 -4.742188 4.117188 -4.550781 4.390625 -4.28125 L 3.765625 -3.53125 C 3.578125 -3.707031 3.394531 -3.828125 3.21875 -3.890625 C 3.039062 -3.953125 2.859375 -3.984375 2.671875 -3.984375 C 2.472656 -3.984375 2.289062 -3.941406 2.125 -3.859375 C 1.957031 -3.785156 1.804688 -3.679688 1.671875 -3.546875 C 1.546875 -3.410156 1.445312 -3.25 1.375 -3.0625 C 1.3125 -2.882812 1.28125 -2.691406 1.28125 -2.484375 C 1.28125 -2.265625 1.3125 -2.0625 1.375 -1.875 C 1.445312 -1.695312 1.546875 -1.539062 1.671875 -1.40625 C 1.804688 -1.269531 1.957031 -1.160156 2.125 -1.078125 C 2.289062 -1.003906 2.472656 -0.96875 2.671875 -0.96875 Z M 2.671875 -0.96875 "/></g></g></g><g fill="#ffffff" fill-opacity="1"><g transform="translate(233.485864, 210.04695)"><g><path d="M 2.9375 -2.421875 L 2.359375 -1.984375 L 1.703125 -3.109375 L 1.078125 -2 L 0.484375 -2.421875 L 1.359375 -3.34375 L 0.140625 -3.5625 L 0.359375 -4.25 L 1.484375 -3.8125 L 1.34375 -4.96875 L 2.078125 -4.96875 L 1.9375 -3.828125 L 3.046875 -4.25 L 3.265625 -3.5625 L 2.109375 -3.328125 Z M 2.9375 -2.421875 "/></g></g></g><g fill="#ffffff" fill-opacity="1"><g transform="translate(240.716909, 210.04695)"><g><path d="M 3.375 -4.96875 L 5.453125 0 L 4.3125 0 L 3.859375 -1.0625 L 1.75 -1.0625 L 1.3125 0 L 0.15625 0 L 2.21875 -4.96875 Z M 3.453125 -2.03125 L 2.8125 -3.59375 L 2.15625 -2.03125 Z M 3.453125 -2.03125 "/></g></g></g><g fill="#ffffff" fill-opacity="1"><g transform="translate(250.138963, 210.04695)"><g><path d="M 1.390625 -0.953125 L 3.4375 -0.953125 L 3.4375 0 L 0.328125 0 L 0.328125 -4.96875 L 1.390625 -4.96875 Z M 1.390625 -0.953125 "/></g></g></g><g fill="#ffffff" fill-opacity="1"><g transform="translate(257.453997, 210.04695)"><g><path d="M 1.390625 -0.953125 L 3.4375 -0.953125 L 3.4375 0 L 0.328125 0 L 0.328125 -4.96875 L 1.390625 -4.96875 Z M 1.390625 -0.953125 "/></g></g></g><g fill="#ffffff" fill-opacity="1"><g transform="translate(264.769031, 210.04695)"><g><path d="M 3.140625 -4.96875 L 4.1875 -4.96875 L 4.1875 -1.796875 C 4.1875 -1.546875 4.132812 -1.304688 4.03125 -1.078125 C 3.9375 -0.847656 3.800781 -0.644531 3.625 -0.46875 C 3.445312 -0.300781 3.238281 -0.164062 3 -0.0625 C 2.757812 0.0390625 2.503906 0.09375 2.234375 0.09375 C 1.972656 0.09375 1.722656 0.0390625 1.484375 -0.0625 C 1.242188 -0.164062 1.035156 -0.300781 0.859375 -0.46875 C 0.691406 -0.644531 0.554688 -0.847656 0.453125 -1.078125 C 0.347656 -1.304688 0.296875 -1.546875 0.296875 -1.796875 L 0.296875 -4.96875 L 1.34375 -4.96875 L 1.34375 -2 C 1.34375 -1.863281 1.363281 -1.734375 1.40625 -1.609375 C 1.457031 -1.484375 1.523438 -1.375 1.609375 -1.28125 C 1.691406 -1.1875 1.785156 -1.109375 1.890625 -1.046875 C 2.003906 -0.992188 2.117188 -0.96875 2.234375 -0.96875 C 2.359375 -0.96875 2.472656 -0.992188 2.578125 -1.046875 C 2.691406 -1.109375 2.789062 -1.1875 2.875 -1.28125 C 2.957031 -1.375 3.019531 -1.484375 3.0625 -1.609375 C 3.113281 -1.734375 3.140625 -1.863281 3.140625 -2 Z M 3.140625 -4.96875 "/></g></g></g><g fill="#ffffff" fill-opacity="1"><g transform="translate(273.06408, 210.04695)"><g><path d="M 3.90625 -3.484375 C 3.90625 -3.328125 3.878906 -3.175781 3.828125 -3.03125 C 3.785156 -2.894531 3.722656 -2.765625 3.640625 -2.640625 C 3.566406 -2.523438 3.472656 -2.421875 3.359375 -2.328125 C 3.242188 -2.234375 3.125 -2.160156 3 -2.109375 L 4.640625 0 L 3.40625 0 L 1.875 -2 L 1.390625 -2 L 1.390625 0 L 0.328125 0 L 0.328125 -4.96875 L 2.46875 -4.96875 C 2.664062 -4.96875 2.851562 -4.925781 3.03125 -4.84375 C 3.207031 -4.769531 3.359375 -4.664062 3.484375 -4.53125 C 3.609375 -4.394531 3.707031 -4.238281 3.78125 -4.0625 C 3.863281 -3.882812 3.90625 -3.691406 3.90625 -3.484375 Z M 2.34375 -2.96875 C 2.476562 -2.96875 2.59375 -3.015625 2.6875 -3.109375 C 2.78125 -3.210938 2.828125 -3.335938 2.828125 -3.484375 C 2.828125 -3.628906 2.78125 -3.75 2.6875 -3.84375 C 2.59375 -3.945312 2.476562 -4 2.34375 -4 L 1.390625 -4 L 1.390625 -2.96875 Z M 2.34375 -2.96875 "/></g></g></g><g fill="#ffffff" fill-opacity="1"><g transform="translate(281.688127, 210.04695)"><g><path d="M 2.140625 -4.96875 L 2.140625 -4.0625 L 1.765625 -4.0625 L 1.765625 -0.890625 L 2.140625 -0.890625 L 2.140625 0 L 0.328125 0 L 0.328125 -0.890625 L 0.703125 -0.890625 L 0.703125 -4.0625 L 0.328125 -4.0625 L 0.328125 -4.96875 Z M 2.140625 -4.96875 "/></g></g></g><g fill="#ffffff" fill-opacity="1"><g transform="translate(287.960162, 210.04695)"><g><path d="M 3.71875 -4.96875 L 4.78125 -4.96875 L 4.78125 0 L 3.765625 0 L 1.390625 -3.234375 L 1.390625 0 L 0.328125 0 L 0.328125 -4.96875 L 1.328125 -4.96875 L 3.71875 -1.703125 Z M 3.71875 -4.96875 "/></g></g></g><g fill="#ffffff" fill-opacity="1"><g transform="translate(296.885204, 210.04695)"><g><path d="M 2.78125 -2.8125 L 4.65625 -2.8125 L 4.65625 -0.984375 C 4.375 -0.628906 4.0625 -0.359375 3.71875 -0.171875 C 3.382812 0.00390625 3.03125 0.09375 2.65625 0.09375 C 2.320312 0.09375 2.003906 0.0234375 1.703125 -0.109375 C 1.410156 -0.253906 1.15625 -0.441406 0.9375 -0.671875 C 0.71875 -0.898438 0.539062 -1.171875 0.40625 -1.484375 C 0.28125 -1.796875 0.21875 -2.128906 0.21875 -2.484375 C 0.21875 -2.828125 0.28125 -3.148438 0.40625 -3.453125 C 0.539062 -3.765625 0.71875 -4.035156 0.9375 -4.265625 C 1.15625 -4.503906 1.410156 -4.691406 1.703125 -4.828125 C 2.003906 -4.960938 2.320312 -5.03125 2.65625 -5.03125 C 2.976562 -5.03125 3.28125 -4.972656 3.5625 -4.859375 C 3.84375 -4.742188 4.113281 -4.550781 4.375 -4.28125 L 3.765625 -3.53125 C 3.566406 -3.707031 3.378906 -3.828125 3.203125 -3.890625 C 3.035156 -3.953125 2.859375 -3.984375 2.671875 -3.984375 C 2.472656 -3.984375 2.285156 -3.941406 2.109375 -3.859375 C 1.941406 -3.785156 1.796875 -3.679688 1.671875 -3.546875 C 1.546875 -3.410156 1.445312 -3.25 1.375 -3.0625 C 1.300781 -2.882812 1.265625 -2.691406 1.265625 -2.484375 C 1.265625 -2.265625 1.300781 -2.0625 1.375 -1.875 C 1.445312 -1.695312 1.546875 -1.539062 1.671875 -1.40625 C 1.796875 -1.269531 1.941406 -1.160156 2.109375 -1.078125 C 2.285156 -1.003906 2.472656 -0.96875 2.671875 -0.96875 C 2.835938 -0.96875 3.003906 -1 3.171875 -1.0625 C 3.347656 -1.125 3.523438 -1.226562 3.703125 -1.375 L 3.703125 -1.90625 L 2.78125 -1.90625 Z M 2.78125 -2.8125 "/></g></g></g></svg>