<svg xmlns="http://www.w3.org/2000/svg" xmlns:xlink="http://www.w3.org/1999/xlink" width="500" zoomAndPan="magnify" viewBox="0 0 375 374.999991" height="500" preserveAspectRatio="xMidYMid meet" version="1.0"><defs><g/></defs><rect x="-37.5" width="450" fill="#ffffff" y="-37.499999" height="449.999989" fill-opacity="1"/><rect x="-37.5" width="450" fill="#ffffff" y="-37.499999" height="449.999989" fill-opacity="1"/><g fill="#e04f00" fill-opacity="1"><g transform="translate(17.298734, 176.713671)"><g><path d="M 4 -10.484375 C 4 -12.773438 4.597656 -14.71875 5.796875 -16.3125 C 6.992188 -17.914062 8.632812 -19.144531 10.71875 -20 C 10.988281 -20.101562 11.175781 -20.019531 11.28125 -19.75 C 11.382812 -19.488281 11.359375 -19.253906 11.203125 -19.046875 C 10.242188 -18.503906 9.484375 -17.671875 8.921875 -16.546875 C 8.359375 -15.429688 8.078125 -14.078125 8.078125 -12.484375 C 8.078125 -9.222656 9.273438 -6.660156 11.671875 -4.796875 C 14.078125 -2.929688 17.203125 -2 21.046875 -2 C 26.054688 -2 29.640625 -2.984375 31.796875 -4.953125 C 33.960938 -6.929688 35.046875 -9.519531 35.046875 -12.71875 C 35.046875 -15.707031 34.429688 -18.332031 33.203125 -20.59375 C 31.972656 -22.863281 30.625 -25 29.15625 -27 C 27.6875 -29 26.335938 -31.007812 25.109375 -33.03125 C 23.890625 -35.0625 23.28125 -37.359375 23.28125 -39.921875 C 23.28125 -41.410156 23.613281 -42.847656 24.28125 -44.234375 C 24.945312 -45.617188 25.878906 -46.859375 27.078125 -47.953125 C 28.273438 -49.046875 29.703125 -49.910156 31.359375 -50.546875 C 33.015625 -51.191406 34.828125 -51.515625 36.796875 -51.515625 C 39.515625 -51.515625 41.660156 -50.941406 43.234375 -49.796875 C 44.804688 -48.648438 45.59375 -47.28125 45.59375 -45.6875 C 45.59375 -44.769531 45.207031 -43.660156 44.4375 -42.359375 C 43.664062 -41.054688 42.878906 -39.921875 42.078125 -38.953125 C 41.867188 -38.847656 41.679688 -38.875 41.515625 -39.03125 C 41.359375 -39.195312 41.304688 -39.382812 41.359375 -39.59375 C 41.628906 -40.019531 41.851562 -40.539062 42.03125 -41.15625 C 42.21875 -41.769531 42.3125 -42.453125 42.3125 -43.203125 C 42.3125 -44.054688 42.125 -44.867188 41.75 -45.640625 C 41.382812 -46.410156 40.851562 -47.078125 40.15625 -47.640625 C 39.46875 -48.203125 38.671875 -48.65625 37.765625 -49 C 36.859375 -49.34375 35.894531 -49.515625 34.875 -49.515625 C 32.207031 -49.515625 30.257812 -48.875 29.03125 -47.59375 C 27.8125 -46.320312 27.203125 -44.671875 27.203125 -42.640625 C 27.203125 -41.035156 27.507812 -39.523438 28.125 -38.109375 C 28.738281 -36.703125 29.5 -35.289062 30.40625 -33.875 C 31.3125 -32.46875 32.28125 -31.054688 33.3125 -29.640625 C 34.351562 -28.222656 35.328125 -26.753906 36.234375 -25.234375 C 37.140625 -23.710938 37.898438 -22.113281 38.515625 -20.4375 C 39.128906 -18.757812 39.4375 -16.929688 39.4375 -14.953125 C 39.4375 -12.878906 38.914062 -10.9375 37.875 -9.125 C 36.832031 -7.3125 35.40625 -5.722656 33.59375 -4.359375 C 31.78125 -2.992188 29.675781 -1.925781 27.28125 -1.15625 C 24.882812 -0.382812 22.296875 0 19.515625 0 C 14.453125 0 10.597656 -0.984375 7.953125 -2.953125 C 5.316406 -4.929688 4 -7.441406 4 -10.484375 Z M 4 -10.484375 "/></g></g></g><g fill="#e04f00" fill-opacity="1"><g transform="translate(58.33475, 176.713671)"><g><path d="M 5.921875 0 C 3.679688 0 2.5625 -1.226562 2.5625 -3.6875 C 2.5625 -4.53125 2.65625 -5.507812 2.84375 -6.625 C 3.03125 -7.75 3.320312 -8.910156 3.71875 -10.109375 C 4.113281 -11.316406 4.578125 -12.53125 5.109375 -13.75 C 5.648438 -14.976562 6.296875 -16.15625 7.046875 -17.28125 C 6.453125 -16.90625 5.890625 -16.515625 5.359375 -16.109375 C 4.828125 -15.710938 4.347656 -15.300781 3.921875 -14.875 C 3.765625 -14.769531 3.617188 -14.8125 3.484375 -15 C 3.347656 -15.1875 3.332031 -15.359375 3.4375 -15.515625 C 4.34375 -16.472656 5.632812 -17.457031 7.3125 -18.46875 C 9 -19.488281 10.613281 -20.289062 12.15625 -20.875 C 12.425781 -20.875 12.625 -20.804688 12.75 -20.671875 C 12.882812 -20.546875 12.898438 -20.375 12.796875 -20.15625 C 11.085938 -17.914062 9.710938 -15.488281 8.671875 -12.875 C 7.640625 -10.257812 7.125 -7.726562 7.125 -5.28125 C 7.125 -3.726562 7.601562 -2.953125 8.5625 -2.953125 C 9.25 -2.953125 10.097656 -3.421875 11.109375 -4.359375 C 12.128906 -5.296875 13.195312 -6.519531 14.3125 -8.03125 C 15.4375 -9.550781 16.570312 -11.269531 17.71875 -13.1875 C 18.863281 -15.113281 19.914062 -17.066406 20.875 -19.046875 C 21.039062 -19.359375 21.507812 -19.675781 22.28125 -20 C 23.050781 -20.320312 23.835938 -20.484375 24.640625 -20.484375 C 25.441406 -20.484375 25.679688 -20.269531 25.359375 -19.84375 C 24.609375 -18.457031 23.953125 -17.160156 23.390625 -15.953125 C 22.835938 -14.753906 22.375 -13.566406 22 -12.390625 C 21.625 -11.222656 21.34375 -10.039062 21.15625 -8.84375 C 20.96875 -7.644531 20.875 -6.320312 20.875 -4.875 C 20.875 -3.164062 21.328125 -2.3125 22.234375 -2.3125 C 23.140625 -2.3125 24.15625 -3.113281 25.28125 -4.71875 C 25.4375 -4.820312 25.59375 -4.820312 25.75 -4.71875 C 25.914062 -4.613281 25.972656 -4.453125 25.921875 -4.234375 C 25.015625 -2.847656 24.015625 -1.796875 22.921875 -1.078125 C 21.828125 -0.359375 20.828125 0 19.921875 0 C 17.679688 0 16.5625 -1.304688 16.5625 -3.921875 C 16.5625 -6.640625 17.039062 -9.332031 18 -12 C 15.96875 -8.320312 13.832031 -5.398438 11.59375 -3.234375 C 9.351562 -1.078125 7.460938 0 5.921875 0 Z M 5.921875 0 "/></g></g></g><g fill="#e04f00" fill-opacity="1"><g transform="translate(84.892171, 176.713671)"><g><path d="M 15.84375 -13.28125 C 15.519531 -13.175781 15.359375 -13.3125 15.359375 -13.6875 C 15.734375 -14.800781 15.664062 -15.785156 15.15625 -16.640625 C 14.65625 -17.492188 13.738281 -17.921875 12.40625 -17.921875 C 10.695312 -17.921875 9.320312 -16.851562 8.28125 -14.71875 C 7.238281 -12.582031 6.71875 -9.8125 6.71875 -6.40625 C 6.71875 -3.894531 7.707031 -2.640625 9.6875 -2.640625 C 10.59375 -2.640625 11.585938 -2.972656 12.671875 -3.640625 C 13.765625 -4.304688 14.769531 -5.171875 15.6875 -6.234375 C 15.894531 -6.347656 16.078125 -6.320312 16.234375 -6.15625 C 16.398438 -6 16.425781 -5.8125 16.3125 -5.59375 C 14.976562 -3.894531 13.484375 -2.535156 11.828125 -1.515625 C 10.179688 -0.503906 8.425781 0 6.5625 0 C 5.382812 0 4.394531 -0.410156 3.59375 -1.234375 C 2.800781 -2.066406 2.40625 -3.226562 2.40625 -4.71875 C 2.40625 -6.582031 2.789062 -8.460938 3.5625 -10.359375 C 4.332031 -12.253906 5.332031 -13.945312 6.5625 -15.4375 C 7.789062 -16.9375 9.125 -18.148438 10.5625 -19.078125 C 12 -20.015625 13.410156 -20.484375 14.796875 -20.484375 C 16.023438 -20.484375 16.984375 -20.132812 17.671875 -19.4375 C 18.367188 -18.75 18.71875 -17.976562 18.71875 -17.125 C 18.71875 -16.800781 18.625 -16.453125 18.4375 -16.078125 C 18.25 -15.703125 18.007812 -15.328125 17.71875 -14.953125 C 17.425781 -14.585938 17.101562 -14.242188 16.75 -13.921875 C 16.40625 -13.597656 16.101562 -13.382812 15.84375 -13.28125 Z M 15.84375 -13.28125 "/></g></g></g><g fill="#e04f00" fill-opacity="1"><g transform="translate(103.210395, 176.713671)"><g><path d="M 1.921875 -0.71875 C 4.316406 -9.894531 7.070312 -18.160156 10.1875 -25.515625 C 13.3125 -32.878906 16.609375 -39.144531 20.078125 -44.3125 C 23.546875 -49.488281 27.050781 -53.476562 30.59375 -56.28125 C 34.144531 -59.082031 37.519531 -60.484375 40.71875 -60.484375 C 42.050781 -60.484375 43.101562 -60.175781 43.875 -59.5625 C 44.65625 -58.945312 45.191406 -58.195312 45.484375 -57.3125 C 45.773438 -56.4375 45.8125 -55.488281 45.59375 -54.46875 C 45.382812 -53.457031 44.988281 -52.554688 44.40625 -51.765625 C 44.238281 -51.597656 44.078125 -51.539062 43.921875 -51.59375 C 43.765625 -51.65625 43.6875 -51.789062 43.6875 -52 C 43.945312 -53.0625 43.648438 -54.070312 42.796875 -55.03125 C 41.941406 -56 40.582031 -56.484375 38.71875 -56.484375 C 35.84375 -56.484375 33.109375 -55.707031 30.515625 -54.15625 C 27.929688 -52.613281 25.410156 -50.039062 22.953125 -46.4375 C 20.503906 -42.84375 18.101562 -38.070312 15.75 -32.125 C 13.40625 -26.175781 11.007812 -18.773438 8.5625 -9.921875 C 9.363281 -11.359375 10.28125 -12.71875 11.3125 -14 C 12.351562 -15.28125 13.488281 -16.398438 14.71875 -17.359375 C 15.945312 -18.316406 17.253906 -19.078125 18.640625 -19.640625 C 20.023438 -20.203125 21.460938 -20.484375 22.953125 -20.484375 C 23.597656 -20.484375 24.066406 -20.320312 24.359375 -20 C 24.648438 -19.675781 24.796875 -19.300781 24.796875 -18.875 C 24.796875 -18.1875 24.554688 -17.414062 24.078125 -16.5625 C 22.960938 -14.582031 22.054688 -12.550781 21.359375 -10.46875 C 20.660156 -8.394531 20.3125 -6.503906 20.3125 -4.796875 C 20.3125 -4.054688 20.390625 -3.441406 20.546875 -2.953125 C 20.710938 -2.472656 21.007812 -2.234375 21.4375 -2.234375 C 21.96875 -2.234375 22.550781 -2.515625 23.1875 -3.078125 C 23.832031 -3.640625 24.367188 -4.265625 24.796875 -4.953125 C 24.960938 -5.066406 25.125 -5.054688 25.28125 -4.921875 C 25.4375 -4.785156 25.488281 -4.640625 25.4375 -4.484375 C 24.75 -3.304688 23.773438 -2.265625 22.515625 -1.359375 C 21.265625 -0.453125 20.132812 0 19.125 0 C 18.21875 0 17.46875 -0.25 16.875 -0.75 C 16.289062 -1.257812 16 -2.128906 16 -3.359375 C 16 -4.316406 16.09375 -5.34375 16.28125 -6.4375 C 16.46875 -7.53125 16.707031 -8.609375 17 -9.671875 C 17.289062 -10.742188 17.632812 -11.800781 18.03125 -12.84375 C 18.4375 -13.882812 18.878906 -14.832031 19.359375 -15.6875 C 19.628906 -16.320312 19.765625 -16.773438 19.765625 -17.046875 C 19.765625 -17.523438 19.492188 -17.765625 18.953125 -17.765625 C 17.941406 -17.765625 16.847656 -17.375 15.671875 -16.59375 C 14.503906 -15.820312 13.359375 -14.726562 12.234375 -13.3125 C 11.117188 -11.90625 10.039062 -10.210938 9 -8.234375 C 7.957031 -6.265625 7.0625 -4.082031 6.3125 -1.6875 C 6.207031 -1.3125 5.78125 -0.9375 5.03125 -0.5625 C 4.289062 -0.1875 3.46875 0 2.5625 0 C 2.03125 0 1.816406 -0.238281 1.921875 -0.71875 Z M 1.921875 -0.71875 "/></g></g></g><g fill="#e04f00" fill-opacity="1"><g transform="translate(129.127874, 176.713671)"><g><path d="M 12.71875 -23.921875 C 12.5625 -23.765625 12.390625 -23.765625 12.203125 -23.921875 C 12.015625 -24.078125 11.863281 -24.300781 11.75 -24.59375 C 11.644531 -24.894531 11.59375 -25.21875 11.59375 -25.5625 C 11.59375 -25.90625 11.675781 -26.210938 11.84375 -26.484375 C 12.425781 -27.222656 13.289062 -28.164062 14.4375 -29.3125 C 15.582031 -30.46875 16.769531 -31.441406 18 -32.234375 C 18.101562 -32.285156 18.234375 -32.242188 18.390625 -32.109375 C 18.554688 -31.984375 18.613281 -31.867188 18.5625 -31.765625 C 17.4375 -30.742188 16.367188 -29.523438 15.359375 -28.109375 C 14.347656 -26.703125 13.46875 -25.304688 12.71875 -23.921875 Z M 4.15625 -14.875 C 4 -14.769531 3.863281 -14.8125 3.75 -15 C 3.644531 -15.1875 3.625 -15.359375 3.6875 -15.515625 C 5.65625 -17.117188 8.398438 -18.773438 11.921875 -20.484375 C 12.347656 -20.484375 12.5625 -20.242188 12.5625 -19.765625 C 11.863281 -18.535156 11.179688 -17.195312 10.515625 -15.75 C 9.847656 -14.3125 9.257812 -12.882812 8.75 -11.46875 C 8.25 -10.0625 7.835938 -8.703125 7.515625 -7.390625 C 7.203125 -6.085938 7.046875 -5.007812 7.046875 -4.15625 C 7.046875 -3.09375 7.414062 -2.5625 8.15625 -2.5625 C 8.75 -2.5625 9.320312 -2.8125 9.875 -3.3125 C 10.4375 -3.820312 11.09375 -4.476562 11.84375 -5.28125 C 11.945312 -5.382812 12.078125 -5.367188 12.234375 -5.234375 C 12.398438 -5.109375 12.425781 -4.910156 12.3125 -4.640625 C 11.144531 -3.253906 9.988281 -2.132812 8.84375 -1.28125 C 7.695312 -0.425781 6.585938 0 5.515625 0 C 3.648438 0 2.71875 -0.878906 2.71875 -2.640625 C 2.71875 -3.597656 2.863281 -4.726562 3.15625 -6.03125 C 3.445312 -7.34375 3.847656 -8.675781 4.359375 -10.03125 C 4.867188 -11.394531 5.425781 -12.726562 6.03125 -14.03125 C 6.644531 -15.34375 7.273438 -16.476562 7.921875 -17.4375 C 7.335938 -17.113281 6.679688 -16.710938 5.953125 -16.234375 C 5.234375 -15.753906 4.632812 -15.300781 4.15625 -14.875 Z M 4.15625 -14.875 "/></g></g></g><g fill="#e04f00" fill-opacity="1"><g transform="translate(142.406579, 176.713671)"><g><path d="M 17.765625 -20.078125 C 18.023438 -19.972656 18.128906 -19.828125 18.078125 -19.640625 C 18.023438 -19.453125 17.785156 -19.304688 17.359375 -19.203125 C 16.554688 -19.203125 15.632812 -19.175781 14.59375 -19.125 C 13.5625 -19.070312 12.457031 -18.988281 11.28125 -18.875 C 10.21875 -16.257812 9.335938 -13.710938 8.640625 -11.234375 C 7.941406 -8.753906 7.59375 -6.742188 7.59375 -5.203125 C 7.59375 -3.390625 8.289062 -2.484375 9.6875 -2.484375 C 11.070312 -2.484375 12.613281 -3.679688 14.3125 -6.078125 C 14.476562 -6.179688 14.625 -6.179688 14.75 -6.078125 C 14.882812 -5.972656 14.925781 -5.785156 14.875 -5.515625 C 13.96875 -4.023438 12.820312 -2.734375 11.4375 -1.640625 C 10.050781 -0.546875 8.691406 0 7.359375 0 C 5.972656 0 4.945312 -0.332031 4.28125 -1 C 3.613281 -1.664062 3.28125 -2.585938 3.28125 -3.765625 C 3.28125 -5.304688 3.648438 -7.4375 4.390625 -10.15625 C 5.140625 -12.875 6.101562 -15.648438 7.28125 -18.484375 C 5.894531 -18.316406 4.613281 -18.101562 3.4375 -17.84375 C 3.175781 -17.894531 3.109375 -18.023438 3.234375 -18.234375 C 3.367188 -18.453125 3.609375 -18.679688 3.953125 -18.921875 C 4.304688 -19.160156 4.722656 -19.375 5.203125 -19.5625 C 5.679688 -19.75 6.132812 -19.84375 6.5625 -19.84375 C 6.769531 -19.84375 6.976562 -19.84375 7.1875 -19.84375 C 7.40625 -19.84375 7.625 -19.867188 7.84375 -19.921875 C 8.53125 -21.460938 9.25 -22.953125 10 -24.390625 C 10.75 -25.835938 11.492188 -27.144531 12.234375 -28.3125 C 12.554688 -28.6875 13 -29.019531 13.5625 -29.3125 C 14.125 -29.613281 14.671875 -29.84375 15.203125 -30 C 15.734375 -30.15625 16.171875 -30.242188 16.515625 -30.265625 C 16.867188 -30.296875 17.015625 -30.207031 16.953125 -30 C 16.046875 -28.613281 15.148438 -27.066406 14.265625 -25.359375 C 13.390625 -23.648438 12.554688 -21.863281 11.765625 -20 C 12.773438 -20.050781 13.800781 -20.078125 14.84375 -20.078125 C 15.882812 -20.078125 16.859375 -20.078125 17.765625 -20.078125 Z M 17.765625 -20.078125 "/></g></g></g><g fill="#e04f00" fill-opacity="1"><g transform="translate(157.365128, 176.713671)"><g><path d="M 10.875 -18.15625 C 10.875 -17.351562 10.796875 -16.445312 10.640625 -15.4375 C 10.484375 -14.425781 10.269531 -13.382812 10 -12.3125 C 11.0625 -14.875 12.234375 -16.875 13.515625 -18.3125 C 14.796875 -19.757812 16.1875 -20.484375 17.6875 -20.484375 C 18.476562 -20.484375 19.085938 -20.296875 19.515625 -19.921875 C 19.941406 -19.546875 20.15625 -19.066406 20.15625 -18.484375 C 20.15625 -17.953125 19.953125 -17.257812 19.546875 -16.40625 C 19.148438 -15.550781 18.820312 -14.960938 18.5625 -14.640625 C 18.457031 -14.585938 18.347656 -14.597656 18.234375 -14.671875 C 18.128906 -14.753906 18.078125 -14.847656 18.078125 -14.953125 C 18.078125 -15.328125 17.929688 -15.644531 17.640625 -15.90625 C 17.347656 -16.175781 16.90625 -16.3125 16.3125 -16.3125 C 14.445312 -16.3125 12.753906 -15.046875 11.234375 -12.515625 C 9.710938 -9.984375 8.316406 -6.34375 7.046875 -1.59375 C 6.984375 -1.332031 6.789062 -1.109375 6.46875 -0.921875 C 6.15625 -0.734375 5.796875 -0.570312 5.390625 -0.4375 C 4.992188 -0.300781 4.582031 -0.191406 4.15625 -0.109375 C 3.726562 -0.0351562 3.359375 0 3.046875 0 C 2.453125 0 2.289062 -0.316406 2.5625 -0.953125 C 3.039062 -2.078125 3.503906 -3.289062 3.953125 -4.59375 C 4.410156 -5.90625 4.828125 -7.226562 5.203125 -8.5625 C 5.578125 -9.894531 5.894531 -11.1875 6.15625 -12.4375 C 6.425781 -13.6875 6.640625 -14.847656 6.796875 -15.921875 C 6.898438 -16.722656 6.9375 -17.335938 6.90625 -17.765625 C 6.882812 -18.191406 6.660156 -18.40625 6.234375 -18.40625 C 5.703125 -18.40625 5.15625 -18.175781 4.59375 -17.71875 C 4.039062 -17.269531 3.523438 -16.695312 3.046875 -16 C 2.828125 -15.84375 2.625 -15.828125 2.4375 -15.953125 C 2.25 -16.085938 2.207031 -16.265625 2.3125 -16.484375 C 2.632812 -16.910156 3.019531 -17.347656 3.46875 -17.796875 C 3.925781 -18.253906 4.4375 -18.679688 5 -19.078125 C 5.5625 -19.484375 6.148438 -19.816406 6.765625 -20.078125 C 7.378906 -20.347656 8.003906 -20.484375 8.640625 -20.484375 C 9.492188 -20.484375 10.078125 -20.28125 10.390625 -19.875 C 10.710938 -19.476562 10.875 -18.90625 10.875 -18.15625 Z M 10.875 -18.15625 "/></g></g></g><g fill="#e04f00" fill-opacity="1"><g transform="translate(174.323486, 176.713671)"><g><path d="M 24.3125 -5.046875 C 24.425781 -5.148438 24.5625 -5.144531 24.71875 -5.03125 C 24.875 -4.925781 24.925781 -4.769531 24.875 -4.5625 C 23.914062 -3.175781 22.847656 -2.066406 21.671875 -1.234375 C 20.503906 -0.410156 19.382812 0 18.3125 0 C 17.09375 0 16.304688 -0.863281 15.953125 -2.59375 C 15.609375 -4.332031 15.785156 -6.398438 16.484375 -8.796875 C 15.035156 -6.503906 13.472656 -4.546875 11.796875 -2.921875 C 10.117188 -1.296875 8.347656 -0.320312 6.484375 0 C 5.203125 0 4.210938 -0.582031 3.515625 -1.75 C 2.828125 -2.925781 2.484375 -4.289062 2.484375 -5.84375 C 2.484375 -7.601562 2.910156 -9.347656 3.765625 -11.078125 C 4.617188 -12.816406 5.75 -14.378906 7.15625 -15.765625 C 8.570312 -17.148438 10.144531 -18.28125 11.875 -19.15625 C 13.613281 -20.039062 15.363281 -20.484375 17.125 -20.484375 C 18.988281 -20.484375 20.453125 -20.03125 21.515625 -19.125 C 22.046875 -19.5 22.722656 -19.816406 23.546875 -20.078125 C 24.378906 -20.347656 25.117188 -20.484375 25.765625 -20.484375 C 25.972656 -20.484375 26.078125 -20.347656 26.078125 -20.078125 C 24.847656 -18.585938 23.789062 -16.945312 22.90625 -15.15625 C 22.03125 -13.375 21.351562 -11.664062 20.875 -10.03125 C 20.394531 -8.40625 20.101562 -6.953125 20 -5.671875 C 19.894531 -4.398438 20 -3.523438 20.3125 -3.046875 C 20.582031 -2.722656 21.035156 -2.625 21.671875 -2.75 C 22.316406 -2.882812 23.195312 -3.648438 24.3125 -5.046875 Z M 8.953125 -2.953125 C 9.597656 -2.953125 10.382812 -3.351562 11.3125 -4.15625 C 12.25 -4.957031 13.222656 -6.023438 14.234375 -7.359375 C 15.253906 -8.691406 16.253906 -10.179688 17.234375 -11.828125 C 18.222656 -13.484375 19.09375 -15.164062 19.84375 -16.875 C 19.625 -17.570312 19.128906 -18.132812 18.359375 -18.5625 C 17.585938 -18.988281 16.695312 -19.203125 15.6875 -19.203125 C 14.457031 -19.203125 13.304688 -18.894531 12.234375 -18.28125 C 11.171875 -17.664062 10.25 -16.8125 9.46875 -15.71875 C 8.695312 -14.625 8.082031 -13.316406 7.625 -11.796875 C 7.175781 -10.273438 6.953125 -8.609375 6.953125 -6.796875 C 6.953125 -5.628906 7.148438 -4.695312 7.546875 -4 C 7.953125 -3.300781 8.421875 -2.953125 8.953125 -2.953125 Z M 8.953125 -2.953125 "/></g></g></g><g fill="#e04f00" fill-opacity="1"><g transform="translate(200.480947, 176.713671)"><g/></g></g><g fill="#e04f00" fill-opacity="1"><g transform="translate(212.479767, 176.713671)"><g><path d="M 68.15625 -48.796875 C 68.375 -48.640625 68.398438 -48.382812 68.234375 -48.03125 C 68.078125 -47.6875 67.820312 -47.34375 67.46875 -47 C 67.125 -46.65625 66.710938 -46.347656 66.234375 -46.078125 C 65.753906 -45.816406 65.328125 -45.6875 64.953125 -45.6875 C 63.679688 -45.789062 62.390625 -45.921875 61.078125 -46.078125 C 59.773438 -46.234375 58.484375 -46.421875 57.203125 -46.640625 C 56.078125 -46.316406 55.101562 -45.847656 54.28125 -45.234375 C 53.457031 -44.617188 52.710938 -43.804688 52.046875 -42.796875 C 51.378906 -41.785156 50.765625 -40.519531 50.203125 -39 C 49.640625 -37.476562 49.066406 -35.625 48.484375 -33.4375 C 48.109375 -32.207031 47.757812 -31.003906 47.4375 -29.828125 C 47.113281 -28.660156 46.738281 -27.546875 46.3125 -26.484375 L 54.5625 -26.484375 C 54.820312 -26.367188 54.910156 -26.242188 54.828125 -26.109375 C 54.753906 -25.984375 54.503906 -25.867188 54.078125 -25.765625 C 52.691406 -25.710938 51.332031 -25.671875 50 -25.640625 C 48.664062 -25.609375 47.332031 -25.566406 46 -25.515625 C 42.800781 -16.710938 38.734375 -10.257812 33.796875 -6.15625 C 28.867188 -2.050781 22.960938 0 16.078125 0 C 12.234375 0 9.257812 -0.90625 7.15625 -2.71875 C 5.050781 -4.53125 4 -7.035156 4 -10.234375 C 4 -12.109375 4.546875 -13.84375 5.640625 -15.4375 C 6.734375 -17.039062 8.289062 -18.296875 10.3125 -19.203125 C 10.53125 -19.203125 10.691406 -19.109375 10.796875 -18.921875 C 10.898438 -18.734375 10.898438 -18.5625 10.796875 -18.40625 C 9.835938 -17.65625 9.128906 -16.835938 8.671875 -15.953125 C 8.222656 -15.078125 8 -13.863281 8 -12.3125 C 8 -10.925781 8.238281 -9.660156 8.71875 -8.515625 C 9.195312 -7.367188 9.941406 -6.351562 10.953125 -5.46875 C 11.972656 -4.59375 13.28125 -3.914062 14.875 -3.4375 C 16.476562 -2.957031 18.398438 -2.71875 20.640625 -2.71875 C 23.203125 -2.71875 25.453125 -3.035156 27.390625 -3.671875 C 29.335938 -4.316406 31.113281 -5.476562 32.71875 -7.15625 C 34.320312 -8.84375 35.816406 -11.148438 37.203125 -14.078125 C 38.585938 -17.015625 40 -20.773438 41.4375 -25.359375 C 38.71875 -25.253906 36.078125 -25.09375 33.515625 -24.875 C 30.960938 -24.664062 28.457031 -24.375 26 -24 C 25.84375 -24.050781 25.867188 -24.171875 26.078125 -24.359375 C 26.296875 -24.546875 26.601562 -24.742188 27 -24.953125 C 27.394531 -25.171875 27.832031 -25.375 28.3125 -25.5625 C 28.800781 -25.75 29.175781 -25.867188 29.4375 -25.921875 C 33.4375 -26.128906 37.546875 -26.289062 41.765625 -26.40625 C 42.023438 -27.257812 42.285156 -28.140625 42.546875 -29.046875 C 42.816406 -29.953125 43.085938 -30.882812 43.359375 -31.84375 C 44.535156 -36.15625 46.03125 -39.472656 47.84375 -41.796875 C 49.65625 -44.117188 52.132812 -45.835938 55.28125 -46.953125 C 52.394531 -47.378906 49.632812 -47.765625 47 -48.109375 C 44.363281 -48.460938 41.84375 -48.640625 39.4375 -48.640625 C 35.4375 -48.640625 32.128906 -47.878906 29.515625 -46.359375 C 26.898438 -44.835938 24.984375 -42.238281 23.765625 -38.5625 C 23.597656 -38.394531 23.4375 -38.363281 23.28125 -38.46875 C 23.125 -38.582031 23.046875 -38.773438 23.046875 -39.046875 C 24.210938 -42.828125 26.515625 -45.863281 29.953125 -48.15625 C 33.398438 -50.445312 37.65625 -51.59375 42.71875 -51.59375 C 44.695312 -51.59375 46.6875 -51.484375 48.6875 -51.265625 C 50.6875 -51.054688 52.722656 -50.804688 54.796875 -50.515625 C 56.878906 -50.222656 59.023438 -49.914062 61.234375 -49.59375 C 63.453125 -49.28125 65.757812 -49.015625 68.15625 -48.796875 Z M 68.15625 -48.796875 "/></g></g></g><g fill="#e04f00" fill-opacity="1"><g transform="translate(264.074765, 176.713671)"><g><path d="M 14.3125 -20.484375 C 16.1875 -20.484375 17.578125 -19.921875 18.484375 -18.796875 C 19.390625 -17.679688 19.84375 -16.375 19.84375 -14.875 C 19.84375 -12.800781 19.425781 -10.867188 18.59375 -9.078125 C 17.769531 -7.296875 16.757812 -5.722656 15.5625 -4.359375 C 14.363281 -2.992188 13.066406 -1.925781 11.671875 -1.15625 C 10.285156 -0.382812 9.035156 0 7.921875 0 C 6.109375 0 4.734375 -0.546875 3.796875 -1.640625 C 2.867188 -2.734375 2.40625 -4.132812 2.40625 -5.84375 C 2.40625 -7.382812 2.738281 -9.007812 3.40625 -10.71875 C 4.070312 -12.425781 4.953125 -14 6.046875 -15.4375 C 7.140625 -16.875 8.40625 -18.070312 9.84375 -19.03125 C 11.28125 -20 12.769531 -20.484375 14.3125 -20.484375 Z M 9.921875 -2.484375 C 11.578125 -2.484375 12.976562 -3.347656 14.125 -5.078125 C 15.269531 -6.816406 15.84375 -9.203125 15.84375 -12.234375 C 15.84375 -13.835938 15.519531 -15.171875 14.875 -16.234375 C 14.238281 -17.304688 13.304688 -17.84375 12.078125 -17.84375 C 10.367188 -17.84375 8.976562 -17.015625 7.90625 -15.359375 C 6.84375 -13.703125 6.3125 -11.273438 6.3125 -8.078125 C 6.3125 -6.210938 6.644531 -4.8125 7.3125 -3.875 C 7.976562 -2.945312 8.847656 -2.484375 9.921875 -2.484375 Z M 9.921875 -2.484375 "/></g></g></g><g fill="#e04f00" fill-opacity="1"><g transform="translate(284.712764, 176.713671)"><g><path d="M 14.3125 -20.484375 C 16.1875 -20.484375 17.578125 -19.921875 18.484375 -18.796875 C 19.390625 -17.679688 19.84375 -16.375 19.84375 -14.875 C 19.84375 -12.800781 19.425781 -10.867188 18.59375 -9.078125 C 17.769531 -7.296875 16.757812 -5.722656 15.5625 -4.359375 C 14.363281 -2.992188 13.066406 -1.925781 11.671875 -1.15625 C 10.285156 -0.382812 9.035156 0 7.921875 0 C 6.109375 0 4.734375 -0.546875 3.796875 -1.640625 C 2.867188 -2.734375 2.40625 -4.132812 2.40625 -5.84375 C 2.40625 -7.382812 2.738281 -9.007812 3.40625 -10.71875 C 4.070312 -12.425781 4.953125 -14 6.046875 -15.4375 C 7.140625 -16.875 8.40625 -18.070312 9.84375 -19.03125 C 11.28125 -20 12.769531 -20.484375 14.3125 -20.484375 Z M 9.921875 -2.484375 C 11.578125 -2.484375 12.976562 -3.347656 14.125 -5.078125 C 15.269531 -6.816406 15.84375 -9.203125 15.84375 -12.234375 C 15.84375 -13.835938 15.519531 -15.171875 14.875 -16.234375 C 14.238281 -17.304688 13.304688 -17.84375 12.078125 -17.84375 C 10.367188 -17.84375 8.976562 -17.015625 7.90625 -15.359375 C 6.84375 -13.703125 6.3125 -11.273438 6.3125 -8.078125 C 6.3125 -6.210938 6.644531 -4.8125 7.3125 -3.875 C 7.976562 -2.945312 8.847656 -2.484375 9.921875 -2.484375 Z M 9.921875 -2.484375 "/></g></g></g><g fill="#e04f00" fill-opacity="1"><g transform="translate(305.350763, 176.713671)"><g><path d="M 49.4375 -60.484375 C 50.238281 -60.484375 50.890625 -60.269531 51.390625 -59.84375 C 51.898438 -59.414062 52.257812 -58.851562 52.46875 -58.15625 C 52.6875 -57.46875 52.742188 -56.679688 52.640625 -55.796875 C 52.535156 -54.921875 52.269531 -54.054688 51.84375 -53.203125 C 51.738281 -53.097656 51.601562 -53.054688 51.4375 -53.078125 C 51.28125 -53.109375 51.175781 -53.226562 51.125 -53.4375 C 51.226562 -54.238281 51.015625 -54.835938 50.484375 -55.234375 C 49.953125 -55.640625 49.203125 -55.84375 48.234375 -55.84375 C 45.359375 -55.84375 42.585938 -54.878906 39.921875 -52.953125 C 37.253906 -51.035156 34.734375 -48.085938 32.359375 -44.109375 C 29.984375 -40.140625 27.796875 -35.101562 25.796875 -29 C 23.796875 -22.894531 22 -15.628906 20.40625 -7.203125 C 20.132812 -6.023438 20.101562 -5.019531 20.3125 -4.1875 C 20.53125 -3.363281 20.929688 -2.953125 21.515625 -2.953125 C 22.109375 -2.953125 22.671875 -3.191406 23.203125 -3.671875 C 23.734375 -4.160156 24.210938 -4.773438 24.640625 -5.515625 C 24.742188 -5.628906 24.890625 -5.628906 25.078125 -5.515625 C 25.265625 -5.410156 25.332031 -5.253906 25.28125 -5.046875 C 25.007812 -4.503906 24.617188 -3.941406 24.109375 -3.359375 C 23.609375 -2.773438 23.050781 -2.226562 22.4375 -1.71875 C 21.820312 -1.207031 21.179688 -0.789062 20.515625 -0.46875 C 19.847656 -0.15625 19.25 0 18.71875 0 C 17.539062 0 16.710938 -0.425781 16.234375 -1.28125 C 15.753906 -2.132812 15.570312 -3.09375 15.6875 -4.15625 C 15.789062 -5.0625 15.921875 -5.914062 16.078125 -6.71875 C 16.234375 -7.519531 16.421875 -8.375 16.640625 -9.28125 C 15.578125 -6.988281 14.082031 -5 12.15625 -3.3125 C 10.238281 -1.632812 8.347656 -0.53125 6.484375 0 C 5.253906 0 4.265625 -0.453125 3.515625 -1.359375 C 2.773438 -2.265625 2.40625 -3.4375 2.40625 -4.875 C 2.40625 -6.957031 2.773438 -8.945312 3.515625 -10.84375 C 4.265625 -12.738281 5.28125 -14.40625 6.5625 -15.84375 C 7.84375 -17.28125 9.363281 -18.425781 11.125 -19.28125 C 12.882812 -20.132812 14.773438 -20.5625 16.796875 -20.5625 C 17.921875 -20.5625 18.910156 -20.375 19.765625 -20 C 20.722656 -22.875 21.867188 -25.875 23.203125 -29 C 24.535156 -32.125 26 -35.175781 27.59375 -38.15625 C 29.195312 -41.144531 30.890625 -44 32.671875 -46.71875 C 34.460938 -49.4375 36.289062 -51.804688 38.15625 -53.828125 C 40.019531 -55.859375 41.910156 -57.472656 43.828125 -58.671875 C 45.753906 -59.878906 47.625 -60.484375 49.4375 -60.484375 Z M 9.046875 -3.125 C 9.628906 -3.125 10.316406 -3.425781 11.109375 -4.03125 C 11.910156 -4.644531 12.738281 -5.472656 13.59375 -6.515625 C 14.445312 -7.554688 15.25 -8.753906 16 -10.109375 C 16.75 -11.472656 17.390625 -12.929688 17.921875 -14.484375 C 18.128906 -14.960938 18.3125 -15.453125 18.46875 -15.953125 C 18.632812 -16.460938 18.769531 -16.957031 18.875 -17.4375 C 18.664062 -18.082031 18.253906 -18.550781 17.640625 -18.84375 C 17.023438 -19.132812 16.34375 -19.28125 15.59375 -19.28125 C 14.476562 -19.28125 13.382812 -18.945312 12.3125 -18.28125 C 11.25 -17.613281 10.316406 -16.691406 9.515625 -15.515625 C 8.710938 -14.347656 8.054688 -12.960938 7.546875 -11.359375 C 7.046875 -9.753906 6.796875 -7.992188 6.796875 -6.078125 C 6.796875 -5.222656 6.992188 -4.515625 7.390625 -3.953125 C 7.796875 -3.398438 8.347656 -3.125 9.046875 -3.125 Z M 9.046875 -3.125 "/></g></g></g><g fill="#e04f00" fill-opacity="1"><g transform="translate(330.708306, 176.713671)"><g><path d="M 12.40625 -20.484375 C 13.570312 -20.484375 14.515625 -20.320312 15.234375 -20 C 15.953125 -19.675781 16.3125 -19.273438 16.3125 -18.796875 C 16.3125 -18.210938 16.164062 -17.546875 15.875 -16.796875 C 15.582031 -16.054688 15.304688 -15.441406 15.046875 -14.953125 C 14.929688 -14.847656 14.796875 -14.835938 14.640625 -14.921875 C 14.484375 -15.003906 14.40625 -15.148438 14.40625 -15.359375 C 14.5625 -15.734375 14.640625 -16.265625 14.640625 -16.953125 C 14.640625 -17.703125 14.4375 -18.316406 14.03125 -18.796875 C 13.632812 -19.273438 13.09375 -19.515625 12.40625 -19.515625 C 11.5 -19.515625 10.765625 -19.234375 10.203125 -18.671875 C 9.640625 -18.117188 9.359375 -17.332031 9.359375 -16.3125 C 9.359375 -15.46875 9.582031 -14.65625 10.03125 -13.875 C 10.488281 -13.101562 11 -12.332031 11.5625 -11.5625 C 12.125 -10.789062 12.644531 -9.960938 13.125 -9.078125 C 13.601562 -8.203125 13.84375 -7.203125 13.84375 -6.078125 C 13.84375 -4.160156 13.066406 -2.664062 11.515625 -1.59375 C 9.972656 -0.53125 7.945312 0 5.4375 0 C 3.625 0 2.195312 -0.289062 1.15625 -0.875 C 0.113281 -1.46875 -0.40625 -2.109375 -0.40625 -2.796875 C -0.40625 -3.015625 -0.320312 -3.304688 -0.15625 -3.671875 C 0 -4.046875 0.207031 -4.445312 0.46875 -4.875 C 0.738281 -5.300781 1.035156 -5.726562 1.359375 -6.15625 C 1.679688 -6.582031 2.03125 -6.929688 2.40625 -7.203125 C 2.5625 -7.304688 2.707031 -7.273438 2.84375 -7.109375 C 2.976562 -6.953125 2.988281 -6.796875 2.875 -6.640625 C 2.5625 -6.316406 2.320312 -5.984375 2.15625 -5.640625 C 2 -5.296875 1.921875 -4.828125 1.921875 -4.234375 C 1.921875 -3.273438 2.238281 -2.488281 2.875 -1.875 C 3.519531 -1.257812 4.347656 -0.953125 5.359375 -0.953125 C 6.742188 -0.953125 7.820312 -1.335938 8.59375 -2.109375 C 9.375 -2.890625 9.765625 -3.835938 9.765625 -4.953125 C 9.765625 -5.972656 9.535156 -6.921875 9.078125 -7.796875 C 8.628906 -8.679688 8.132812 -9.535156 7.59375 -10.359375 C 7.0625 -11.179688 6.566406 -12.019531 6.109375 -12.875 C 5.660156 -13.726562 5.4375 -14.632812 5.4375 -15.59375 C 5.4375 -16.988281 6.019531 -18.148438 7.1875 -19.078125 C 8.363281 -20.015625 10.101562 -20.484375 12.40625 -20.484375 Z M 12.40625 -20.484375 "/></g></g></g><g fill="#07363c" fill-opacity="1"><g transform="translate(32.35895, 197.963658)"><g><path d="M 4.828125 -7.09375 L 7.796875 0 L 6.15625 0 L 5.515625 -1.515625 L 2.5 -1.515625 L 1.875 0 L 0.21875 0 L 3.1875 -7.09375 Z M 4.9375 -2.90625 L 4.015625 -5.125 L 3.078125 -2.90625 Z M 4.9375 -2.90625 "/></g></g></g><g fill="#07363c" fill-opacity="1"><g transform="translate(45.815771, 197.963658)"><g><path d="M 4.484375 -7.09375 L 5.984375 -7.09375 L 5.984375 -2.5625 C 5.984375 -2.207031 5.910156 -1.863281 5.765625 -1.53125 C 5.617188 -1.207031 5.421875 -0.921875 5.171875 -0.671875 C 4.921875 -0.429688 4.625 -0.238281 4.28125 -0.09375 C 3.945312 0.0507812 3.585938 0.125 3.203125 0.125 C 2.816406 0.125 2.453125 0.0507812 2.109375 -0.09375 C 1.773438 -0.238281 1.484375 -0.429688 1.234375 -0.671875 C 0.984375 -0.921875 0.785156 -1.207031 0.640625 -1.53125 C 0.492188 -1.863281 0.421875 -2.207031 0.421875 -2.5625 L 0.421875 -7.09375 L 1.9375 -7.09375 L 1.9375 -2.859375 C 1.9375 -2.660156 1.96875 -2.472656 2.03125 -2.296875 C 2.09375 -2.117188 2.179688 -1.960938 2.296875 -1.828125 C 2.410156 -1.691406 2.546875 -1.582031 2.703125 -1.5 C 2.859375 -1.414062 3.023438 -1.375 3.203125 -1.375 C 3.378906 -1.375 3.546875 -1.414062 3.703125 -1.5 C 3.859375 -1.582031 3.992188 -1.691406 4.109375 -1.828125 C 4.222656 -1.960938 4.3125 -2.117188 4.375 -2.296875 C 4.445312 -2.472656 4.484375 -2.660156 4.484375 -2.859375 Z M 4.484375 -7.09375 "/></g></g></g><g fill="#07363c" fill-opacity="1"><g transform="translate(57.663232, 197.963658)"><g><path d="M 0.234375 -7.09375 L 5.359375 -7.09375 L 5.359375 -5.703125 L 3.546875 -5.703125 L 3.546875 0 L 2.046875 0 L 2.046875 -5.703125 L 0.234375 -5.703125 Z M 0.234375 -7.09375 "/></g></g></g><g fill="#07363c" fill-opacity="1"><g transform="translate(68.701012, 197.963658)"><g><path d="M 5.234375 -7.09375 L 6.75 -7.09375 L 6.75 0 L 5.234375 0 L 5.234375 -3.046875 L 1.984375 -3.046875 L 1.984375 0 L 0.46875 0 L 0.46875 -7.09375 L 1.984375 -7.09375 L 1.984375 -4.4375 L 5.234375 -4.4375 Z M 5.234375 -7.09375 "/></g></g></g><g fill="#07363c" fill-opacity="1"><g transform="translate(81.368144, 197.963658)"><g><path d="M 0.484375 -7.09375 L 4.90625 -7.09375 L 4.90625 -5.703125 L 2 -5.703125 L 2 -4.4375 L 4.5625 -4.4375 L 4.5625 -3.046875 L 2 -3.046875 L 2 -1.375 L 4.90625 -1.375 L 4.90625 0 L 0.484375 0 Z M 0.484375 -7.09375 "/></g></g></g><g fill="#07363c" fill-opacity="1"><g transform="translate(92.206008, 197.963658)"><g><path d="M 5.3125 -7.09375 L 6.828125 -7.09375 L 6.828125 0 L 5.390625 0 L 1.984375 -4.625 L 1.984375 0 L 0.46875 0 L 0.46875 -7.09375 L 1.890625 -7.09375 L 5.3125 -2.4375 Z M 5.3125 -7.09375 "/></g></g></g><g fill="#07363c" fill-opacity="1"><g transform="translate(104.953112, 197.963658)"><g><path d="M 0.234375 -7.09375 L 5.359375 -7.09375 L 5.359375 -5.703125 L 3.546875 -5.703125 L 3.546875 0 L 2.046875 0 L 2.046875 -5.703125 L 0.234375 -5.703125 Z M 0.234375 -7.09375 "/></g></g></g><g fill="#07363c" fill-opacity="1"><g transform="translate(115.990892, 197.963658)"><g><path d="M 3.046875 -7.09375 L 3.046875 -5.8125 L 2.515625 -5.8125 L 2.515625 -1.265625 L 3.046875 -1.265625 L 3.046875 0 L 0.46875 0 L 0.46875 -1.265625 L 1 -1.265625 L 1 -5.8125 L 0.46875 -5.8125 L 0.46875 -7.09375 Z M 3.046875 -7.09375 "/></g></g></g><g fill="#07363c" fill-opacity="1"><g transform="translate(124.949498, 197.963658)"><g><path d="M 3.8125 -1.375 C 4.132812 -1.375 4.445312 -1.445312 4.75 -1.59375 C 5.050781 -1.738281 5.363281 -1.988281 5.6875 -2.34375 L 6.65625 -1.40625 C 6.257812 -0.90625 5.8125 -0.523438 5.3125 -0.265625 C 4.8125 -0.00390625 4.296875 0.125 3.765625 0.125 C 3.285156 0.125 2.832031 0.03125 2.40625 -0.15625 C 1.988281 -0.351562 1.625 -0.617188 1.3125 -0.953125 C 1 -1.285156 0.753906 -1.675781 0.578125 -2.125 C 0.398438 -2.570312 0.3125 -3.046875 0.3125 -3.546875 C 0.3125 -4.046875 0.40625 -4.515625 0.59375 -4.953125 C 0.78125 -5.390625 1.03125 -5.773438 1.34375 -6.109375 C 1.65625 -6.441406 2.023438 -6.703125 2.453125 -6.890625 C 2.878906 -7.085938 3.332031 -7.1875 3.8125 -7.1875 C 4.257812 -7.1875 4.679688 -7.101562 5.078125 -6.9375 C 5.484375 -6.769531 5.878906 -6.492188 6.265625 -6.109375 L 5.390625 -5.046875 C 5.109375 -5.304688 4.84375 -5.476562 4.59375 -5.5625 C 4.34375 -5.65625 4.082031 -5.703125 3.8125 -5.703125 C 3.539062 -5.703125 3.28125 -5.644531 3.03125 -5.53125 C 2.789062 -5.414062 2.578125 -5.257812 2.390625 -5.0625 C 2.210938 -4.875 2.070312 -4.644531 1.96875 -4.375 C 1.863281 -4.113281 1.8125 -3.835938 1.8125 -3.546875 C 1.8125 -3.242188 1.863281 -2.960938 1.96875 -2.703125 C 2.070312 -2.441406 2.210938 -2.210938 2.390625 -2.015625 C 2.578125 -1.816406 2.789062 -1.660156 3.03125 -1.546875 C 3.28125 -1.429688 3.539062 -1.375 3.8125 -1.375 Z M 3.8125 -1.375 "/></g></g></g><g fill="#ff914d" fill-opacity="1"><g transform="translate(137.347224, 197.963658)"><g><path d="M 4.203125 -3.46875 L 3.359375 -2.84375 L 2.4375 -4.4375 L 1.53125 -2.84375 L 0.6875 -3.46875 L 1.953125 -4.78125 L 0.203125 -5.078125 L 0.515625 -6.078125 L 2.109375 -5.4375 L 1.90625 -7.09375 L 2.953125 -7.09375 L 2.765625 -5.453125 L 4.34375 -6.078125 L 4.65625 -5.078125 L 3.015625 -4.75 Z M 4.203125 -3.46875 "/></g></g></g><g fill="#07363c" fill-opacity="1"><g transform="translate(147.683161, 197.963658)"><g><path d="M 4.828125 -7.09375 L 7.796875 0 L 6.15625 0 L 5.515625 -1.515625 L 2.5 -1.515625 L 1.875 0 L 0.21875 0 L 3.1875 -7.09375 Z M 4.9375 -2.90625 L 4.015625 -5.125 L 3.078125 -2.90625 Z M 4.9375 -2.90625 "/></g></g></g><g fill="#07363c" fill-opacity="1"><g transform="translate(161.139982, 197.963658)"><g><path d="M 5.5625 -4.984375 C 5.5625 -4.753906 5.53125 -4.535156 5.46875 -4.328125 C 5.40625 -4.128906 5.316406 -3.941406 5.203125 -3.765625 C 5.097656 -3.597656 4.960938 -3.445312 4.796875 -3.3125 C 4.640625 -3.1875 4.46875 -3.085938 4.28125 -3.015625 L 6.625 0 L 4.859375 0 L 2.671875 -2.859375 L 1.984375 -2.859375 L 1.984375 0 L 0.46875 0 L 0.46875 -7.09375 L 3.53125 -7.09375 C 3.8125 -7.09375 4.078125 -7.035156 4.328125 -6.921875 C 4.578125 -6.816406 4.789062 -6.664062 4.96875 -6.46875 C 5.15625 -6.28125 5.300781 -6.054688 5.40625 -5.796875 C 5.507812 -5.546875 5.5625 -5.273438 5.5625 -4.984375 Z M 3.34375 -4.234375 C 3.53125 -4.234375 3.691406 -4.304688 3.828125 -4.453125 C 3.972656 -4.597656 4.046875 -4.773438 4.046875 -4.984375 C 4.046875 -5.179688 3.972656 -5.347656 3.828125 -5.484375 C 3.691406 -5.628906 3.53125 -5.703125 3.34375 -5.703125 L 1.984375 -5.703125 L 1.984375 -4.234375 Z M 3.34375 -4.234375 "/></g></g></g><g fill="#07363c" fill-opacity="1"><g transform="translate(173.457257, 197.963658)"><g><path d="M 3.8125 -7.1875 C 4.300781 -7.1875 4.753906 -7.085938 5.171875 -6.890625 C 5.597656 -6.703125 5.96875 -6.441406 6.28125 -6.109375 C 6.601562 -5.773438 6.851562 -5.390625 7.03125 -4.953125 C 7.21875 -4.515625 7.3125 -4.046875 7.3125 -3.546875 C 7.3125 -3.046875 7.21875 -2.570312 7.03125 -2.125 C 6.851562 -1.675781 6.601562 -1.285156 6.28125 -0.953125 C 5.96875 -0.617188 5.597656 -0.351562 5.171875 -0.15625 C 4.753906 0.03125 4.300781 0.125 3.8125 0.125 C 3.332031 0.125 2.878906 0.03125 2.453125 -0.15625 C 2.023438 -0.351562 1.65625 -0.617188 1.34375 -0.953125 C 1.03125 -1.285156 0.78125 -1.675781 0.59375 -2.125 C 0.414062 -2.570312 0.328125 -3.046875 0.328125 -3.546875 C 0.328125 -4.046875 0.414062 -4.515625 0.59375 -4.953125 C 0.78125 -5.390625 1.03125 -5.773438 1.34375 -6.109375 C 1.65625 -6.441406 2.023438 -6.703125 2.453125 -6.890625 C 2.878906 -7.085938 3.332031 -7.1875 3.8125 -7.1875 Z M 3.8125 -1.375 C 4.09375 -1.375 4.351562 -1.429688 4.59375 -1.546875 C 4.832031 -1.660156 5.039062 -1.816406 5.21875 -2.015625 C 5.394531 -2.210938 5.535156 -2.441406 5.640625 -2.703125 C 5.742188 -2.960938 5.796875 -3.242188 5.796875 -3.546875 C 5.796875 -3.835938 5.742188 -4.113281 5.640625 -4.375 C 5.535156 -4.644531 5.394531 -4.878906 5.21875 -5.078125 C 5.039062 -5.273438 4.832031 -5.425781 4.59375 -5.53125 C 4.351562 -5.644531 4.09375 -5.703125 3.8125 -5.703125 C 3.539062 -5.703125 3.285156 -5.644531 3.046875 -5.53125 C 2.804688 -5.425781 2.597656 -5.273438 2.421875 -5.078125 C 2.242188 -4.878906 2.101562 -4.644531 2 -4.375 C 1.894531 -4.113281 1.84375 -3.835938 1.84375 -3.546875 C 1.84375 -3.242188 1.894531 -2.960938 2 -2.703125 C 2.101562 -2.441406 2.242188 -2.210938 2.421875 -2.015625 C 2.597656 -1.816406 2.804688 -1.660156 3.046875 -1.546875 C 3.285156 -1.429688 3.539062 -1.375 3.8125 -1.375 Z M 3.8125 -1.375 "/></g></g></g><g fill="#07363c" fill-opacity="1"><g transform="translate(186.55423, 197.963658)"><g><path d="M 6.6875 -7.09375 L 8.109375 -7.09375 L 8.109375 0 L 6.59375 0 L 6.59375 -4.6875 L 4.90625 -2.3125 L 3.703125 -2.3125 L 1.984375 -4.609375 L 1.984375 0 L 0.46875 0 L 0.46875 -7.09375 L 1.90625 -7.09375 L 4.3125 -3.8125 Z M 6.6875 -7.09375 "/></g></g></g><g fill="#07363c" fill-opacity="1"><g transform="translate(200.580829, 197.963658)"><g><path d="M 4.828125 -7.09375 L 7.796875 0 L 6.15625 0 L 5.515625 -1.515625 L 2.5 -1.515625 L 1.875 0 L 0.21875 0 L 3.1875 -7.09375 Z M 4.9375 -2.90625 L 4.015625 -5.125 L 3.078125 -2.90625 Z M 4.9375 -2.90625 "/></g></g></g><g fill="#07363c" fill-opacity="1"><g transform="translate(214.037649, 197.963658)"><g><path d="M 0.234375 -7.09375 L 5.359375 -7.09375 L 5.359375 -5.703125 L 3.546875 -5.703125 L 3.546875 0 L 2.046875 0 L 2.046875 -5.703125 L 0.234375 -5.703125 Z M 0.234375 -7.09375 "/></g></g></g><g fill="#07363c" fill-opacity="1"><g transform="translate(225.075429, 197.963658)"><g><path d="M 3.046875 -7.09375 L 3.046875 -5.8125 L 2.515625 -5.8125 L 2.515625 -1.265625 L 3.046875 -1.265625 L 3.046875 0 L 0.46875 0 L 0.46875 -1.265625 L 1 -1.265625 L 1 -5.8125 L 0.46875 -5.8125 L 0.46875 -7.09375 Z M 3.046875 -7.09375 "/></g></g></g><g fill="#07363c" fill-opacity="1"><g transform="translate(234.034036, 197.963658)"><g><path d="M 3.8125 -1.375 C 4.132812 -1.375 4.445312 -1.445312 4.75 -1.59375 C 5.050781 -1.738281 5.363281 -1.988281 5.6875 -2.34375 L 6.65625 -1.40625 C 6.257812 -0.90625 5.8125 -0.523438 5.3125 -0.265625 C 4.8125 -0.00390625 4.296875 0.125 3.765625 0.125 C 3.285156 0.125 2.832031 0.03125 2.40625 -0.15625 C 1.988281 -0.351562 1.625 -0.617188 1.3125 -0.953125 C 1 -1.285156 0.753906 -1.675781 0.578125 -2.125 C 0.398438 -2.570312 0.3125 -3.046875 0.3125 -3.546875 C 0.3125 -4.046875 0.40625 -4.515625 0.59375 -4.953125 C 0.78125 -5.390625 1.03125 -5.773438 1.34375 -6.109375 C 1.65625 -6.441406 2.023438 -6.703125 2.453125 -6.890625 C 2.878906 -7.085938 3.332031 -7.1875 3.8125 -7.1875 C 4.257812 -7.1875 4.679688 -7.101562 5.078125 -6.9375 C 5.484375 -6.769531 5.878906 -6.492188 6.265625 -6.109375 L 5.390625 -5.046875 C 5.109375 -5.304688 4.84375 -5.476562 4.59375 -5.5625 C 4.34375 -5.65625 4.082031 -5.703125 3.8125 -5.703125 C 3.539062 -5.703125 3.28125 -5.644531 3.03125 -5.53125 C 2.789062 -5.414062 2.578125 -5.257812 2.390625 -5.0625 C 2.210938 -4.875 2.070312 -4.644531 1.96875 -4.375 C 1.863281 -4.113281 1.8125 -3.835938 1.8125 -3.546875 C 1.8125 -3.242188 1.863281 -2.960938 1.96875 -2.703125 C 2.070312 -2.441406 2.210938 -2.210938 2.390625 -2.015625 C 2.578125 -1.816406 2.789062 -1.660156 3.03125 -1.546875 C 3.28125 -1.429688 3.539062 -1.375 3.8125 -1.375 Z M 3.8125 -1.375 "/></g></g></g><g fill="#ff914d" fill-opacity="1"><g transform="translate(246.437065, 197.963658)"><g><path d="M 4.203125 -3.46875 L 3.359375 -2.84375 L 2.4375 -4.4375 L 1.53125 -2.84375 L 0.6875 -3.46875 L 1.953125 -4.78125 L 0.203125 -5.078125 L 0.515625 -6.078125 L 2.109375 -5.4375 L 1.90625 -7.09375 L 2.953125 -7.09375 L 2.765625 -5.453125 L 4.34375 -6.078125 L 4.65625 -5.078125 L 3.015625 -4.75 Z M 4.203125 -3.46875 "/></g></g></g><g fill="#07363c" fill-opacity="1"><g transform="translate(256.773002, 197.963658)"><g><path d="M 4.828125 -7.09375 L 7.796875 0 L 6.15625 0 L 5.515625 -1.515625 L 2.5 -1.515625 L 1.875 0 L 0.21875 0 L 3.1875 -7.09375 Z M 4.9375 -2.90625 L 4.015625 -5.125 L 3.078125 -2.90625 Z M 4.9375 -2.90625 "/></g></g></g><g fill="#07363c" fill-opacity="1"><g transform="translate(270.229822, 197.963658)"><g><path d="M 1.984375 -1.375 L 4.90625 -1.375 L 4.90625 0 L 0.46875 0 L 0.46875 -7.09375 L 1.984375 -7.09375 Z M 1.984375 -1.375 "/></g></g></g><g fill="#07363c" fill-opacity="1"><g transform="translate(280.677831, 197.963658)"><g><path d="M 1.984375 -1.375 L 4.90625 -1.375 L 4.90625 0 L 0.46875 0 L 0.46875 -7.09375 L 1.984375 -7.09375 Z M 1.984375 -1.375 "/></g></g></g><g fill="#07363c" fill-opacity="1"><g transform="translate(291.12584, 197.963658)"><g><path d="M 4.484375 -7.09375 L 5.984375 -7.09375 L 5.984375 -2.5625 C 5.984375 -2.207031 5.910156 -1.863281 5.765625 -1.53125 C 5.617188 -1.207031 5.421875 -0.921875 5.171875 -0.671875 C 4.921875 -0.429688 4.625 -0.238281 4.28125 -0.09375 C 3.945312 0.0507812 3.585938 0.125 3.203125 0.125 C 2.816406 0.125 2.453125 0.0507812 2.109375 -0.09375 C 1.773438 -0.238281 1.484375 -0.429688 1.234375 -0.671875 C 0.984375 -0.921875 0.785156 -1.207031 0.640625 -1.53125 C 0.492188 -1.863281 0.421875 -2.207031 0.421875 -2.5625 L 0.421875 -7.09375 L 1.9375 -7.09375 L 1.9375 -2.859375 C 1.9375 -2.660156 1.96875 -2.472656 2.03125 -2.296875 C 2.09375 -2.117188 2.179688 -1.960938 2.296875 -1.828125 C 2.410156 -1.691406 2.546875 -1.582031 2.703125 -1.5 C 2.859375 -1.414062 3.023438 -1.375 3.203125 -1.375 C 3.378906 -1.375 3.546875 -1.414062 3.703125 -1.5 C 3.859375 -1.582031 3.992188 -1.691406 4.109375 -1.828125 C 4.222656 -1.960938 4.3125 -2.117188 4.375 -2.296875 C 4.445312 -2.472656 4.484375 -2.660156 4.484375 -2.859375 Z M 4.484375 -7.09375 "/></g></g></g><g fill="#07363c" fill-opacity="1"><g transform="translate(302.973301, 197.963658)"><g><path d="M 5.5625 -4.984375 C 5.5625 -4.753906 5.53125 -4.535156 5.46875 -4.328125 C 5.40625 -4.128906 5.316406 -3.941406 5.203125 -3.765625 C 5.097656 -3.597656 4.960938 -3.445312 4.796875 -3.3125 C 4.640625 -3.1875 4.46875 -3.085938 4.28125 -3.015625 L 6.625 0 L 4.859375 0 L 2.671875 -2.859375 L 1.984375 -2.859375 L 1.984375 0 L 0.46875 0 L 0.46875 -7.09375 L 3.53125 -7.09375 C 3.8125 -7.09375 4.078125 -7.035156 4.328125 -6.921875 C 4.578125 -6.816406 4.789062 -6.664062 4.96875 -6.46875 C 5.15625 -6.28125 5.300781 -6.054688 5.40625 -5.796875 C 5.507812 -5.546875 5.5625 -5.273438 5.5625 -4.984375 Z M 3.34375 -4.234375 C 3.53125 -4.234375 3.691406 -4.304688 3.828125 -4.453125 C 3.972656 -4.597656 4.046875 -4.773438 4.046875 -4.984375 C 4.046875 -5.179688 3.972656 -5.347656 3.828125 -5.484375 C 3.691406 -5.628906 3.53125 -5.703125 3.34375 -5.703125 L 1.984375 -5.703125 L 1.984375 -4.234375 Z M 3.34375 -4.234375 "/></g></g></g><g fill="#07363c" fill-opacity="1"><g transform="translate(315.290576, 197.963658)"><g><path d="M 3.046875 -7.09375 L 3.046875 -5.8125 L 2.515625 -5.8125 L 2.515625 -1.265625 L 3.046875 -1.265625 L 3.046875 0 L 0.46875 0 L 0.46875 -1.265625 L 1 -1.265625 L 1 -5.8125 L 0.46875 -5.8125 L 0.46875 -7.09375 Z M 3.046875 -7.09375 "/></g></g></g><g fill="#07363c" fill-opacity="1"><g transform="translate(324.249182, 197.963658)"><g><path d="M 5.3125 -7.09375 L 6.828125 -7.09375 L 6.828125 0 L 5.390625 0 L 1.984375 -4.625 L 1.984375 0 L 0.46875 0 L 0.46875 -7.09375 L 1.890625 -7.09375 L 5.3125 -2.4375 Z M 5.3125 -7.09375 "/></g></g></g><g fill="#07363c" fill-opacity="1"><g transform="translate(336.996287, 197.963658)"><g><path d="M 3.984375 -4.015625 L 6.65625 -4.015625 L 6.65625 -1.40625 C 6.257812 -0.90625 5.816406 -0.523438 5.328125 -0.265625 C 4.835938 -0.00390625 4.328125 0.125 3.796875 0.125 C 3.316406 0.125 2.863281 0.03125 2.4375 -0.15625 C 2.007812 -0.351562 1.640625 -0.617188 1.328125 -0.953125 C 1.015625 -1.285156 0.765625 -1.675781 0.578125 -2.125 C 0.398438 -2.570312 0.3125 -3.046875 0.3125 -3.546875 C 0.3125 -4.046875 0.398438 -4.515625 0.578125 -4.953125 C 0.765625 -5.390625 1.015625 -5.773438 1.328125 -6.109375 C 1.640625 -6.441406 2.007812 -6.703125 2.4375 -6.890625 C 2.863281 -7.085938 3.316406 -7.1875 3.796875 -7.1875 C 4.253906 -7.1875 4.679688 -7.101562 5.078125 -6.9375 C 5.484375 -6.769531 5.878906 -6.492188 6.265625 -6.109375 L 5.375 -5.046875 C 5.09375 -5.304688 4.828125 -5.476562 4.578125 -5.5625 C 4.335938 -5.65625 4.082031 -5.703125 3.8125 -5.703125 C 3.53125 -5.703125 3.265625 -5.644531 3.015625 -5.53125 C 2.773438 -5.414062 2.566406 -5.257812 2.390625 -5.0625 C 2.210938 -4.875 2.070312 -4.644531 1.96875 -4.375 C 1.863281 -4.113281 1.8125 -3.835938 1.8125 -3.546875 C 1.8125 -3.242188 1.863281 -2.960938 1.96875 -2.703125 C 2.070312 -2.441406 2.210938 -2.210938 2.390625 -2.015625 C 2.566406 -1.816406 2.773438 -1.660156 3.015625 -1.546875 C 3.265625 -1.429688 3.53125 -1.375 3.8125 -1.375 C 4.0625 -1.375 4.304688 -1.421875 4.546875 -1.515625 C 4.785156 -1.609375 5.03125 -1.753906 5.28125 -1.953125 L 5.28125 -2.734375 L 3.984375 -2.734375 Z M 3.984375 -4.015625 "/></g></g></g></svg>